%TF.GenerationSoftware,KiCad,Pcbnew,8.0.0-dirty*%
%TF.CreationDate,2024-04-14T21:31:16-04:00*%
%TF.ProjectId,MainPCB,4d61696e-5043-4422-9e6b-696361645f70,rev?*%
%TF.SameCoordinates,Original*%
%TF.FileFunction,Legend,Top*%
%TF.FilePolarity,Positive*%
%FSLAX46Y46*%
G04 Gerber Fmt 4.6, Leading zero omitted, Abs format (unit mm)*
G04 Created by KiCad (PCBNEW 8.0.0-dirty) date 2024-04-14 21:31:16*
%MOMM*%
%LPD*%
G01*
G04 APERTURE LIST*
G04 Aperture macros list*
%AMRoundRect*
0 Rectangle with rounded corners*
0 $1 Rounding radius*
0 $2 $3 $4 $5 $6 $7 $8 $9 X,Y pos of 4 corners*
0 Add a 4 corners polygon primitive as box body*
4,1,4,$2,$3,$4,$5,$6,$7,$8,$9,$2,$3,0*
0 Add four circle primitives for the rounded corners*
1,1,$1+$1,$2,$3*
1,1,$1+$1,$4,$5*
1,1,$1+$1,$6,$7*
1,1,$1+$1,$8,$9*
0 Add four rect primitives between the rounded corners*
20,1,$1+$1,$2,$3,$4,$5,0*
20,1,$1+$1,$4,$5,$6,$7,0*
20,1,$1+$1,$6,$7,$8,$9,0*
20,1,$1+$1,$8,$9,$2,$3,0*%
G04 Aperture macros list end*
%ADD10C,0.150000*%
%ADD11C,0.100000*%
%ADD12C,0.152400*%
%ADD13C,0.120000*%
%ADD14R,1.295400X1.295400*%
%ADD15C,1.295400*%
%ADD16RoundRect,0.250000X0.600000X-0.600000X0.600000X0.600000X-0.600000X0.600000X-0.600000X-0.600000X0*%
%ADD17C,1.700000*%
%ADD18R,1.600000X1.600000*%
%ADD19C,1.600000*%
%ADD20R,1.700000X1.700000*%
%ADD21O,1.700000X1.700000*%
%ADD22RoundRect,0.250000X0.475000X-0.337500X0.475000X0.337500X-0.475000X0.337500X-0.475000X-0.337500X0*%
%ADD23RoundRect,0.250000X-0.600000X-0.750000X0.600000X-0.750000X0.600000X0.750000X-0.600000X0.750000X0*%
%ADD24O,1.700000X2.000000*%
%ADD25C,5.600000*%
%ADD26RoundRect,0.250000X-0.600000X0.600000X-0.600000X-0.600000X0.600000X-0.600000X0.600000X0.600000X0*%
%ADD27C,1.524000*%
%ADD28RoundRect,0.250000X-0.600000X-0.725000X0.600000X-0.725000X0.600000X0.725000X-0.600000X0.725000X0*%
%ADD29O,1.700000X1.950000*%
%ADD30RoundRect,0.250000X0.600000X0.725000X-0.600000X0.725000X-0.600000X-0.725000X0.600000X-0.725000X0*%
%ADD31RoundRect,0.250000X0.725000X-0.600000X0.725000X0.600000X-0.725000X0.600000X-0.725000X-0.600000X0*%
%ADD32O,1.950000X1.700000*%
%ADD33RoundRect,0.250000X-0.725000X0.600000X-0.725000X-0.600000X0.725000X-0.600000X0.725000X0.600000X0*%
%ADD34O,6.000000X2.000000*%
%ADD35RoundRect,0.250000X-0.750000X0.600000X-0.750000X-0.600000X0.750000X-0.600000X0.750000X0.600000X0*%
%ADD36O,2.000000X1.700000*%
%ADD37O,1.600000X1.600000*%
%ADD38RoundRect,0.250000X0.600000X0.750000X-0.600000X0.750000X-0.600000X-0.750000X0.600000X-0.750000X0*%
G04 APERTURE END LIST*
D10*
X99209200Y-112167432D02*
X99256819Y-112024575D01*
X99256819Y-112024575D02*
X99256819Y-111786480D01*
X99256819Y-111786480D02*
X99209200Y-111691242D01*
X99209200Y-111691242D02*
X99161580Y-111643623D01*
X99161580Y-111643623D02*
X99066342Y-111596004D01*
X99066342Y-111596004D02*
X98971104Y-111596004D01*
X98971104Y-111596004D02*
X98875866Y-111643623D01*
X98875866Y-111643623D02*
X98828247Y-111691242D01*
X98828247Y-111691242D02*
X98780628Y-111786480D01*
X98780628Y-111786480D02*
X98733009Y-111976956D01*
X98733009Y-111976956D02*
X98685390Y-112072194D01*
X98685390Y-112072194D02*
X98637771Y-112119813D01*
X98637771Y-112119813D02*
X98542533Y-112167432D01*
X98542533Y-112167432D02*
X98447295Y-112167432D01*
X98447295Y-112167432D02*
X98352057Y-112119813D01*
X98352057Y-112119813D02*
X98304438Y-112072194D01*
X98304438Y-112072194D02*
X98256819Y-111976956D01*
X98256819Y-111976956D02*
X98256819Y-111738861D01*
X98256819Y-111738861D02*
X98304438Y-111596004D01*
X98256819Y-111262670D02*
X99256819Y-111024575D01*
X99256819Y-111024575D02*
X98542533Y-110834099D01*
X98542533Y-110834099D02*
X99256819Y-110643623D01*
X99256819Y-110643623D02*
X98256819Y-110405528D01*
X98352057Y-110072194D02*
X98304438Y-110024575D01*
X98304438Y-110024575D02*
X98256819Y-109929337D01*
X98256819Y-109929337D02*
X98256819Y-109691242D01*
X98256819Y-109691242D02*
X98304438Y-109596004D01*
X98304438Y-109596004D02*
X98352057Y-109548385D01*
X98352057Y-109548385D02*
X98447295Y-109500766D01*
X98447295Y-109500766D02*
X98542533Y-109500766D01*
X98542533Y-109500766D02*
X98685390Y-109548385D01*
X98685390Y-109548385D02*
X99256819Y-110119813D01*
X99256819Y-110119813D02*
X99256819Y-109500766D01*
X97734819Y-108203333D02*
X98449104Y-108203333D01*
X98449104Y-108203333D02*
X98591961Y-108250952D01*
X98591961Y-108250952D02*
X98687200Y-108346190D01*
X98687200Y-108346190D02*
X98734819Y-108489047D01*
X98734819Y-108489047D02*
X98734819Y-108584285D01*
X98163390Y-107584285D02*
X98115771Y-107679523D01*
X98115771Y-107679523D02*
X98068152Y-107727142D01*
X98068152Y-107727142D02*
X97972914Y-107774761D01*
X97972914Y-107774761D02*
X97925295Y-107774761D01*
X97925295Y-107774761D02*
X97830057Y-107727142D01*
X97830057Y-107727142D02*
X97782438Y-107679523D01*
X97782438Y-107679523D02*
X97734819Y-107584285D01*
X97734819Y-107584285D02*
X97734819Y-107393809D01*
X97734819Y-107393809D02*
X97782438Y-107298571D01*
X97782438Y-107298571D02*
X97830057Y-107250952D01*
X97830057Y-107250952D02*
X97925295Y-107203333D01*
X97925295Y-107203333D02*
X97972914Y-107203333D01*
X97972914Y-107203333D02*
X98068152Y-107250952D01*
X98068152Y-107250952D02*
X98115771Y-107298571D01*
X98115771Y-107298571D02*
X98163390Y-107393809D01*
X98163390Y-107393809D02*
X98163390Y-107584285D01*
X98163390Y-107584285D02*
X98211009Y-107679523D01*
X98211009Y-107679523D02*
X98258628Y-107727142D01*
X98258628Y-107727142D02*
X98353866Y-107774761D01*
X98353866Y-107774761D02*
X98544342Y-107774761D01*
X98544342Y-107774761D02*
X98639580Y-107727142D01*
X98639580Y-107727142D02*
X98687200Y-107679523D01*
X98687200Y-107679523D02*
X98734819Y-107584285D01*
X98734819Y-107584285D02*
X98734819Y-107393809D01*
X98734819Y-107393809D02*
X98687200Y-107298571D01*
X98687200Y-107298571D02*
X98639580Y-107250952D01*
X98639580Y-107250952D02*
X98544342Y-107203333D01*
X98544342Y-107203333D02*
X98353866Y-107203333D01*
X98353866Y-107203333D02*
X98258628Y-107250952D01*
X98258628Y-107250952D02*
X98211009Y-107298571D01*
X98211009Y-107298571D02*
X98163390Y-107393809D01*
X118008095Y-83114819D02*
X118008095Y-83924342D01*
X118008095Y-83924342D02*
X118055714Y-84019580D01*
X118055714Y-84019580D02*
X118103333Y-84067200D01*
X118103333Y-84067200D02*
X118198571Y-84114819D01*
X118198571Y-84114819D02*
X118389047Y-84114819D01*
X118389047Y-84114819D02*
X118484285Y-84067200D01*
X118484285Y-84067200D02*
X118531904Y-84019580D01*
X118531904Y-84019580D02*
X118579523Y-83924342D01*
X118579523Y-83924342D02*
X118579523Y-83114819D01*
X119579523Y-84114819D02*
X119008095Y-84114819D01*
X119293809Y-84114819D02*
X119293809Y-83114819D01*
X119293809Y-83114819D02*
X119198571Y-83257676D01*
X119198571Y-83257676D02*
X119103333Y-83352914D01*
X119103333Y-83352914D02*
X119008095Y-83400533D01*
X106636009Y-93400543D02*
X106636009Y-93067210D01*
X107159819Y-92924353D02*
X107159819Y-93400543D01*
X107159819Y-93400543D02*
X106159819Y-93400543D01*
X106159819Y-93400543D02*
X106159819Y-92924353D01*
X106493152Y-92638638D02*
X106493152Y-92257686D01*
X106159819Y-92495781D02*
X107016961Y-92495781D01*
X107016961Y-92495781D02*
X107112200Y-92448162D01*
X107112200Y-92448162D02*
X107159819Y-92352924D01*
X107159819Y-92352924D02*
X107159819Y-92257686D01*
X107159819Y-91924352D02*
X106159819Y-91924352D01*
X107159819Y-91495781D02*
X106636009Y-91495781D01*
X106636009Y-91495781D02*
X106540771Y-91543400D01*
X106540771Y-91543400D02*
X106493152Y-91638638D01*
X106493152Y-91638638D02*
X106493152Y-91781495D01*
X106493152Y-91781495D02*
X106540771Y-91876733D01*
X106540771Y-91876733D02*
X106588390Y-91924352D01*
X107112200Y-90638638D02*
X107159819Y-90733876D01*
X107159819Y-90733876D02*
X107159819Y-90924352D01*
X107159819Y-90924352D02*
X107112200Y-91019590D01*
X107112200Y-91019590D02*
X107016961Y-91067209D01*
X107016961Y-91067209D02*
X106636009Y-91067209D01*
X106636009Y-91067209D02*
X106540771Y-91019590D01*
X106540771Y-91019590D02*
X106493152Y-90924352D01*
X106493152Y-90924352D02*
X106493152Y-90733876D01*
X106493152Y-90733876D02*
X106540771Y-90638638D01*
X106540771Y-90638638D02*
X106636009Y-90591019D01*
X106636009Y-90591019D02*
X106731247Y-90591019D01*
X106731247Y-90591019D02*
X106826485Y-91067209D01*
X107159819Y-90162447D02*
X106493152Y-90162447D01*
X106683628Y-90162447D02*
X106588390Y-90114828D01*
X106588390Y-90114828D02*
X106540771Y-90067209D01*
X106540771Y-90067209D02*
X106493152Y-89971971D01*
X106493152Y-89971971D02*
X106493152Y-89876733D01*
X106493152Y-89543399D02*
X107159819Y-89543399D01*
X106588390Y-89543399D02*
X106540771Y-89495780D01*
X106540771Y-89495780D02*
X106493152Y-89400542D01*
X106493152Y-89400542D02*
X106493152Y-89257685D01*
X106493152Y-89257685D02*
X106540771Y-89162447D01*
X106540771Y-89162447D02*
X106636009Y-89114828D01*
X106636009Y-89114828D02*
X107159819Y-89114828D01*
X107112200Y-88257685D02*
X107159819Y-88352923D01*
X107159819Y-88352923D02*
X107159819Y-88543399D01*
X107159819Y-88543399D02*
X107112200Y-88638637D01*
X107112200Y-88638637D02*
X107016961Y-88686256D01*
X107016961Y-88686256D02*
X106636009Y-88686256D01*
X106636009Y-88686256D02*
X106540771Y-88638637D01*
X106540771Y-88638637D02*
X106493152Y-88543399D01*
X106493152Y-88543399D02*
X106493152Y-88352923D01*
X106493152Y-88352923D02*
X106540771Y-88257685D01*
X106540771Y-88257685D02*
X106636009Y-88210066D01*
X106636009Y-88210066D02*
X106731247Y-88210066D01*
X106731247Y-88210066D02*
X106826485Y-88686256D01*
X106493152Y-87924351D02*
X106493152Y-87543399D01*
X106159819Y-87781494D02*
X107016961Y-87781494D01*
X107016961Y-87781494D02*
X107112200Y-87733875D01*
X107112200Y-87733875D02*
X107159819Y-87638637D01*
X107159819Y-87638637D02*
X107159819Y-87543399D01*
X116546033Y-95023333D02*
X115846033Y-95023333D01*
X115846033Y-95023333D02*
X115846033Y-94856666D01*
X115846033Y-94856666D02*
X115879366Y-94756666D01*
X115879366Y-94756666D02*
X115946033Y-94690000D01*
X115946033Y-94690000D02*
X116012700Y-94656666D01*
X116012700Y-94656666D02*
X116146033Y-94623333D01*
X116146033Y-94623333D02*
X116246033Y-94623333D01*
X116246033Y-94623333D02*
X116379366Y-94656666D01*
X116379366Y-94656666D02*
X116446033Y-94690000D01*
X116446033Y-94690000D02*
X116512700Y-94756666D01*
X116512700Y-94756666D02*
X116546033Y-94856666D01*
X116546033Y-94856666D02*
X116546033Y-95023333D01*
X115846033Y-94423333D02*
X116546033Y-94190000D01*
X116546033Y-94190000D02*
X115846033Y-93956666D01*
X115846033Y-93523333D02*
X116346033Y-93523333D01*
X116346033Y-93523333D02*
X116446033Y-93556666D01*
X116446033Y-93556666D02*
X116512700Y-93623333D01*
X116512700Y-93623333D02*
X116546033Y-93723333D01*
X116546033Y-93723333D02*
X116546033Y-93790000D01*
X115846033Y-92890000D02*
X115846033Y-93023333D01*
X115846033Y-93023333D02*
X115879366Y-93090000D01*
X115879366Y-93090000D02*
X115912700Y-93123333D01*
X115912700Y-93123333D02*
X116012700Y-93190000D01*
X116012700Y-93190000D02*
X116146033Y-93223333D01*
X116146033Y-93223333D02*
X116412700Y-93223333D01*
X116412700Y-93223333D02*
X116479366Y-93190000D01*
X116479366Y-93190000D02*
X116512700Y-93156667D01*
X116512700Y-93156667D02*
X116546033Y-93090000D01*
X116546033Y-93090000D02*
X116546033Y-92956667D01*
X116546033Y-92956667D02*
X116512700Y-92890000D01*
X116512700Y-92890000D02*
X116479366Y-92856667D01*
X116479366Y-92856667D02*
X116412700Y-92823333D01*
X116412700Y-92823333D02*
X116246033Y-92823333D01*
X116246033Y-92823333D02*
X116179366Y-92856667D01*
X116179366Y-92856667D02*
X116146033Y-92890000D01*
X116146033Y-92890000D02*
X116112700Y-92956667D01*
X116112700Y-92956667D02*
X116112700Y-93090000D01*
X116112700Y-93090000D02*
X116146033Y-93156667D01*
X116146033Y-93156667D02*
X116179366Y-93190000D01*
X116179366Y-93190000D02*
X116246033Y-93223333D01*
X116346033Y-92556666D02*
X116346033Y-92223333D01*
X116546033Y-92623333D02*
X115846033Y-92390000D01*
X115846033Y-92390000D02*
X116546033Y-92156666D01*
X96994676Y-95764019D02*
X96994676Y-96573542D01*
X96994676Y-96573542D02*
X97042295Y-96668780D01*
X97042295Y-96668780D02*
X97089914Y-96716400D01*
X97089914Y-96716400D02*
X97185152Y-96764019D01*
X97185152Y-96764019D02*
X97375628Y-96764019D01*
X97375628Y-96764019D02*
X97470866Y-96716400D01*
X97470866Y-96716400D02*
X97518485Y-96668780D01*
X97518485Y-96668780D02*
X97566104Y-96573542D01*
X97566104Y-96573542D02*
X97566104Y-95764019D01*
X97994676Y-96716400D02*
X98137533Y-96764019D01*
X98137533Y-96764019D02*
X98375628Y-96764019D01*
X98375628Y-96764019D02*
X98470866Y-96716400D01*
X98470866Y-96716400D02*
X98518485Y-96668780D01*
X98518485Y-96668780D02*
X98566104Y-96573542D01*
X98566104Y-96573542D02*
X98566104Y-96478304D01*
X98566104Y-96478304D02*
X98518485Y-96383066D01*
X98518485Y-96383066D02*
X98470866Y-96335447D01*
X98470866Y-96335447D02*
X98375628Y-96287828D01*
X98375628Y-96287828D02*
X98185152Y-96240209D01*
X98185152Y-96240209D02*
X98089914Y-96192590D01*
X98089914Y-96192590D02*
X98042295Y-96144971D01*
X98042295Y-96144971D02*
X97994676Y-96049733D01*
X97994676Y-96049733D02*
X97994676Y-95954495D01*
X97994676Y-95954495D02*
X98042295Y-95859257D01*
X98042295Y-95859257D02*
X98089914Y-95811638D01*
X98089914Y-95811638D02*
X98185152Y-95764019D01*
X98185152Y-95764019D02*
X98423247Y-95764019D01*
X98423247Y-95764019D02*
X98566104Y-95811638D01*
X99328009Y-96240209D02*
X99470866Y-96287828D01*
X99470866Y-96287828D02*
X99518485Y-96335447D01*
X99518485Y-96335447D02*
X99566104Y-96430685D01*
X99566104Y-96430685D02*
X99566104Y-96573542D01*
X99566104Y-96573542D02*
X99518485Y-96668780D01*
X99518485Y-96668780D02*
X99470866Y-96716400D01*
X99470866Y-96716400D02*
X99375628Y-96764019D01*
X99375628Y-96764019D02*
X98994676Y-96764019D01*
X98994676Y-96764019D02*
X98994676Y-95764019D01*
X98994676Y-95764019D02*
X99328009Y-95764019D01*
X99328009Y-95764019D02*
X99423247Y-95811638D01*
X99423247Y-95811638D02*
X99470866Y-95859257D01*
X99470866Y-95859257D02*
X99518485Y-95954495D01*
X99518485Y-95954495D02*
X99518485Y-96049733D01*
X99518485Y-96049733D02*
X99470866Y-96144971D01*
X99470866Y-96144971D02*
X99423247Y-96192590D01*
X99423247Y-96192590D02*
X99328009Y-96240209D01*
X99328009Y-96240209D02*
X98994676Y-96240209D01*
X100756581Y-96764019D02*
X100756581Y-95764019D01*
X100756581Y-96240209D02*
X101328009Y-96240209D01*
X101328009Y-96764019D02*
X101328009Y-95764019D01*
X101947057Y-96764019D02*
X101851819Y-96716400D01*
X101851819Y-96716400D02*
X101804200Y-96668780D01*
X101804200Y-96668780D02*
X101756581Y-96573542D01*
X101756581Y-96573542D02*
X101756581Y-96287828D01*
X101756581Y-96287828D02*
X101804200Y-96192590D01*
X101804200Y-96192590D02*
X101851819Y-96144971D01*
X101851819Y-96144971D02*
X101947057Y-96097352D01*
X101947057Y-96097352D02*
X102089914Y-96097352D01*
X102089914Y-96097352D02*
X102185152Y-96144971D01*
X102185152Y-96144971D02*
X102232771Y-96192590D01*
X102232771Y-96192590D02*
X102280390Y-96287828D01*
X102280390Y-96287828D02*
X102280390Y-96573542D01*
X102280390Y-96573542D02*
X102232771Y-96668780D01*
X102232771Y-96668780D02*
X102185152Y-96716400D01*
X102185152Y-96716400D02*
X102089914Y-96764019D01*
X102089914Y-96764019D02*
X101947057Y-96764019D01*
X102661343Y-96716400D02*
X102756581Y-96764019D01*
X102756581Y-96764019D02*
X102947057Y-96764019D01*
X102947057Y-96764019D02*
X103042295Y-96716400D01*
X103042295Y-96716400D02*
X103089914Y-96621161D01*
X103089914Y-96621161D02*
X103089914Y-96573542D01*
X103089914Y-96573542D02*
X103042295Y-96478304D01*
X103042295Y-96478304D02*
X102947057Y-96430685D01*
X102947057Y-96430685D02*
X102804200Y-96430685D01*
X102804200Y-96430685D02*
X102708962Y-96383066D01*
X102708962Y-96383066D02*
X102661343Y-96287828D01*
X102661343Y-96287828D02*
X102661343Y-96240209D01*
X102661343Y-96240209D02*
X102708962Y-96144971D01*
X102708962Y-96144971D02*
X102804200Y-96097352D01*
X102804200Y-96097352D02*
X102947057Y-96097352D01*
X102947057Y-96097352D02*
X103042295Y-96144971D01*
X103375629Y-96097352D02*
X103756581Y-96097352D01*
X103518486Y-95764019D02*
X103518486Y-96621161D01*
X103518486Y-96621161D02*
X103566105Y-96716400D01*
X103566105Y-96716400D02*
X103661343Y-96764019D01*
X103661343Y-96764019D02*
X103756581Y-96764019D01*
X139780952Y-94274819D02*
X139780952Y-93274819D01*
X139780952Y-93274819D02*
X140114285Y-93989104D01*
X140114285Y-93989104D02*
X140447618Y-93274819D01*
X140447618Y-93274819D02*
X140447618Y-94274819D01*
X140923809Y-94274819D02*
X140923809Y-93608152D01*
X140923809Y-93274819D02*
X140876190Y-93322438D01*
X140876190Y-93322438D02*
X140923809Y-93370057D01*
X140923809Y-93370057D02*
X140971428Y-93322438D01*
X140971428Y-93322438D02*
X140923809Y-93274819D01*
X140923809Y-93274819D02*
X140923809Y-93370057D01*
X141828570Y-94227200D02*
X141733332Y-94274819D01*
X141733332Y-94274819D02*
X141542856Y-94274819D01*
X141542856Y-94274819D02*
X141447618Y-94227200D01*
X141447618Y-94227200D02*
X141399999Y-94179580D01*
X141399999Y-94179580D02*
X141352380Y-94084342D01*
X141352380Y-94084342D02*
X141352380Y-93798628D01*
X141352380Y-93798628D02*
X141399999Y-93703390D01*
X141399999Y-93703390D02*
X141447618Y-93655771D01*
X141447618Y-93655771D02*
X141542856Y-93608152D01*
X141542856Y-93608152D02*
X141733332Y-93608152D01*
X141733332Y-93608152D02*
X141828570Y-93655771D01*
X142257142Y-94274819D02*
X142257142Y-93608152D01*
X142257142Y-93798628D02*
X142304761Y-93703390D01*
X142304761Y-93703390D02*
X142352380Y-93655771D01*
X142352380Y-93655771D02*
X142447618Y-93608152D01*
X142447618Y-93608152D02*
X142542856Y-93608152D01*
X143019047Y-94274819D02*
X142923809Y-94227200D01*
X142923809Y-94227200D02*
X142876190Y-94179580D01*
X142876190Y-94179580D02*
X142828571Y-94084342D01*
X142828571Y-94084342D02*
X142828571Y-93798628D01*
X142828571Y-93798628D02*
X142876190Y-93703390D01*
X142876190Y-93703390D02*
X142923809Y-93655771D01*
X142923809Y-93655771D02*
X143019047Y-93608152D01*
X143019047Y-93608152D02*
X143161904Y-93608152D01*
X143161904Y-93608152D02*
X143257142Y-93655771D01*
X143257142Y-93655771D02*
X143304761Y-93703390D01*
X143304761Y-93703390D02*
X143352380Y-93798628D01*
X143352380Y-93798628D02*
X143352380Y-94084342D01*
X143352380Y-94084342D02*
X143304761Y-94179580D01*
X143304761Y-94179580D02*
X143257142Y-94227200D01*
X143257142Y-94227200D02*
X143161904Y-94274819D01*
X143161904Y-94274819D02*
X143019047Y-94274819D01*
X144495238Y-94227200D02*
X144638095Y-94274819D01*
X144638095Y-94274819D02*
X144876190Y-94274819D01*
X144876190Y-94274819D02*
X144971428Y-94227200D01*
X144971428Y-94227200D02*
X145019047Y-94179580D01*
X145019047Y-94179580D02*
X145066666Y-94084342D01*
X145066666Y-94084342D02*
X145066666Y-93989104D01*
X145066666Y-93989104D02*
X145019047Y-93893866D01*
X145019047Y-93893866D02*
X144971428Y-93846247D01*
X144971428Y-93846247D02*
X144876190Y-93798628D01*
X144876190Y-93798628D02*
X144685714Y-93751009D01*
X144685714Y-93751009D02*
X144590476Y-93703390D01*
X144590476Y-93703390D02*
X144542857Y-93655771D01*
X144542857Y-93655771D02*
X144495238Y-93560533D01*
X144495238Y-93560533D02*
X144495238Y-93465295D01*
X144495238Y-93465295D02*
X144542857Y-93370057D01*
X144542857Y-93370057D02*
X144590476Y-93322438D01*
X144590476Y-93322438D02*
X144685714Y-93274819D01*
X144685714Y-93274819D02*
X144923809Y-93274819D01*
X144923809Y-93274819D02*
X145066666Y-93322438D01*
X145495238Y-94274819D02*
X145495238Y-93274819D01*
X145495238Y-93274819D02*
X145733333Y-93274819D01*
X145733333Y-93274819D02*
X145876190Y-93322438D01*
X145876190Y-93322438D02*
X145971428Y-93417676D01*
X145971428Y-93417676D02*
X146019047Y-93512914D01*
X146019047Y-93512914D02*
X146066666Y-93703390D01*
X146066666Y-93703390D02*
X146066666Y-93846247D01*
X146066666Y-93846247D02*
X146019047Y-94036723D01*
X146019047Y-94036723D02*
X145971428Y-94131961D01*
X145971428Y-94131961D02*
X145876190Y-94227200D01*
X145876190Y-94227200D02*
X145733333Y-94274819D01*
X145733333Y-94274819D02*
X145495238Y-94274819D01*
X117816033Y-96903333D02*
X117116033Y-96903333D01*
X117116033Y-96903333D02*
X117616033Y-96670000D01*
X117616033Y-96670000D02*
X117116033Y-96436666D01*
X117116033Y-96436666D02*
X117816033Y-96436666D01*
X117816033Y-96103333D02*
X117116033Y-96103333D01*
X117816033Y-95770000D02*
X117116033Y-95770000D01*
X117116033Y-95770000D02*
X117616033Y-95536667D01*
X117616033Y-95536667D02*
X117116033Y-95303333D01*
X117116033Y-95303333D02*
X117816033Y-95303333D01*
X117116033Y-95036667D02*
X117816033Y-94570000D01*
X117116033Y-94570000D02*
X117816033Y-95036667D01*
X117816033Y-93903333D02*
X117482700Y-94136666D01*
X117816033Y-94303333D02*
X117116033Y-94303333D01*
X117116033Y-94303333D02*
X117116033Y-94036666D01*
X117116033Y-94036666D02*
X117149366Y-93970000D01*
X117149366Y-93970000D02*
X117182700Y-93936666D01*
X117182700Y-93936666D02*
X117249366Y-93903333D01*
X117249366Y-93903333D02*
X117349366Y-93903333D01*
X117349366Y-93903333D02*
X117416033Y-93936666D01*
X117416033Y-93936666D02*
X117449366Y-93970000D01*
X117449366Y-93970000D02*
X117482700Y-94036666D01*
X117482700Y-94036666D02*
X117482700Y-94303333D01*
X117116033Y-93703333D02*
X117116033Y-93303333D01*
X117816033Y-93503333D02*
X117116033Y-93503333D01*
X117816033Y-92703333D02*
X117816033Y-93103333D01*
X117816033Y-92903333D02*
X117116033Y-92903333D01*
X117116033Y-92903333D02*
X117216033Y-92970000D01*
X117216033Y-92970000D02*
X117282700Y-93036667D01*
X117282700Y-93036667D02*
X117316033Y-93103333D01*
X117116033Y-92270000D02*
X117116033Y-92203333D01*
X117116033Y-92203333D02*
X117149366Y-92136666D01*
X117149366Y-92136666D02*
X117182700Y-92103333D01*
X117182700Y-92103333D02*
X117249366Y-92070000D01*
X117249366Y-92070000D02*
X117382700Y-92036666D01*
X117382700Y-92036666D02*
X117549366Y-92036666D01*
X117549366Y-92036666D02*
X117682700Y-92070000D01*
X117682700Y-92070000D02*
X117749366Y-92103333D01*
X117749366Y-92103333D02*
X117782700Y-92136666D01*
X117782700Y-92136666D02*
X117816033Y-92203333D01*
X117816033Y-92203333D02*
X117816033Y-92270000D01*
X117816033Y-92270000D02*
X117782700Y-92336666D01*
X117782700Y-92336666D02*
X117749366Y-92370000D01*
X117749366Y-92370000D02*
X117682700Y-92403333D01*
X117682700Y-92403333D02*
X117549366Y-92436666D01*
X117549366Y-92436666D02*
X117382700Y-92436666D01*
X117382700Y-92436666D02*
X117249366Y-92403333D01*
X117249366Y-92403333D02*
X117182700Y-92370000D01*
X117182700Y-92370000D02*
X117149366Y-92336666D01*
X117149366Y-92336666D02*
X117116033Y-92270000D01*
X117116033Y-91436666D02*
X117116033Y-91569999D01*
X117116033Y-91569999D02*
X117149366Y-91636666D01*
X117149366Y-91636666D02*
X117182700Y-91669999D01*
X117182700Y-91669999D02*
X117282700Y-91736666D01*
X117282700Y-91736666D02*
X117416033Y-91769999D01*
X117416033Y-91769999D02*
X117682700Y-91769999D01*
X117682700Y-91769999D02*
X117749366Y-91736666D01*
X117749366Y-91736666D02*
X117782700Y-91703333D01*
X117782700Y-91703333D02*
X117816033Y-91636666D01*
X117816033Y-91636666D02*
X117816033Y-91503333D01*
X117816033Y-91503333D02*
X117782700Y-91436666D01*
X117782700Y-91436666D02*
X117749366Y-91403333D01*
X117749366Y-91403333D02*
X117682700Y-91369999D01*
X117682700Y-91369999D02*
X117516033Y-91369999D01*
X117516033Y-91369999D02*
X117449366Y-91403333D01*
X117449366Y-91403333D02*
X117416033Y-91436666D01*
X117416033Y-91436666D02*
X117382700Y-91503333D01*
X117382700Y-91503333D02*
X117382700Y-91636666D01*
X117382700Y-91636666D02*
X117416033Y-91703333D01*
X117416033Y-91703333D02*
X117449366Y-91736666D01*
X117449366Y-91736666D02*
X117516033Y-91769999D01*
X117182700Y-91103332D02*
X117149366Y-91069999D01*
X117149366Y-91069999D02*
X117116033Y-91003332D01*
X117116033Y-91003332D02*
X117116033Y-90836666D01*
X117116033Y-90836666D02*
X117149366Y-90769999D01*
X117149366Y-90769999D02*
X117182700Y-90736666D01*
X117182700Y-90736666D02*
X117249366Y-90703332D01*
X117249366Y-90703332D02*
X117316033Y-90703332D01*
X117316033Y-90703332D02*
X117416033Y-90736666D01*
X117416033Y-90736666D02*
X117816033Y-91136666D01*
X117816033Y-91136666D02*
X117816033Y-90703332D01*
D11*
X182708095Y-62201519D02*
X182708095Y-63011042D01*
X182708095Y-63011042D02*
X182755714Y-63106280D01*
X182755714Y-63106280D02*
X182803333Y-63153900D01*
X182803333Y-63153900D02*
X182898571Y-63201519D01*
X182898571Y-63201519D02*
X183089047Y-63201519D01*
X183089047Y-63201519D02*
X183184285Y-63153900D01*
X183184285Y-63153900D02*
X183231904Y-63106280D01*
X183231904Y-63106280D02*
X183279523Y-63011042D01*
X183279523Y-63011042D02*
X183279523Y-62201519D01*
X184231904Y-62201519D02*
X183755714Y-62201519D01*
X183755714Y-62201519D02*
X183708095Y-62677709D01*
X183708095Y-62677709D02*
X183755714Y-62630090D01*
X183755714Y-62630090D02*
X183850952Y-62582471D01*
X183850952Y-62582471D02*
X184089047Y-62582471D01*
X184089047Y-62582471D02*
X184184285Y-62630090D01*
X184184285Y-62630090D02*
X184231904Y-62677709D01*
X184231904Y-62677709D02*
X184279523Y-62772947D01*
X184279523Y-62772947D02*
X184279523Y-63011042D01*
X184279523Y-63011042D02*
X184231904Y-63106280D01*
X184231904Y-63106280D02*
X184184285Y-63153900D01*
X184184285Y-63153900D02*
X184089047Y-63201519D01*
X184089047Y-63201519D02*
X183850952Y-63201519D01*
X183850952Y-63201519D02*
X183755714Y-63153900D01*
X183755714Y-63153900D02*
X183708095Y-63106280D01*
D10*
X136374819Y-81804166D02*
X135898628Y-82137499D01*
X136374819Y-82375594D02*
X135374819Y-82375594D01*
X135374819Y-82375594D02*
X135374819Y-81994642D01*
X135374819Y-81994642D02*
X135422438Y-81899404D01*
X135422438Y-81899404D02*
X135470057Y-81851785D01*
X135470057Y-81851785D02*
X135565295Y-81804166D01*
X135565295Y-81804166D02*
X135708152Y-81804166D01*
X135708152Y-81804166D02*
X135803390Y-81851785D01*
X135803390Y-81851785D02*
X135851009Y-81899404D01*
X135851009Y-81899404D02*
X135898628Y-81994642D01*
X135898628Y-81994642D02*
X135898628Y-82375594D01*
X135470057Y-81423213D02*
X135422438Y-81375594D01*
X135422438Y-81375594D02*
X135374819Y-81280356D01*
X135374819Y-81280356D02*
X135374819Y-81042261D01*
X135374819Y-81042261D02*
X135422438Y-80947023D01*
X135422438Y-80947023D02*
X135470057Y-80899404D01*
X135470057Y-80899404D02*
X135565295Y-80851785D01*
X135565295Y-80851785D02*
X135660533Y-80851785D01*
X135660533Y-80851785D02*
X135803390Y-80899404D01*
X135803390Y-80899404D02*
X136374819Y-81470832D01*
X136374819Y-81470832D02*
X136374819Y-80851785D01*
X177266666Y-92287819D02*
X177266666Y-93002104D01*
X177266666Y-93002104D02*
X177219047Y-93144961D01*
X177219047Y-93144961D02*
X177123809Y-93240200D01*
X177123809Y-93240200D02*
X176980952Y-93287819D01*
X176980952Y-93287819D02*
X176885714Y-93287819D01*
X178171428Y-92621152D02*
X178171428Y-93287819D01*
X177933333Y-92240200D02*
X177695238Y-92954485D01*
X177695238Y-92954485D02*
X178314285Y-92954485D01*
X105481595Y-77957719D02*
X105481595Y-76957719D01*
X105481595Y-77433909D02*
X106053023Y-77433909D01*
X106053023Y-77957719D02*
X106053023Y-76957719D01*
X107053023Y-77957719D02*
X106481595Y-77957719D01*
X106767309Y-77957719D02*
X106767309Y-76957719D01*
X106767309Y-76957719D02*
X106672071Y-77100576D01*
X106672071Y-77100576D02*
X106576833Y-77195814D01*
X106576833Y-77195814D02*
X106481595Y-77243433D01*
X139384819Y-81804166D02*
X138908628Y-82137499D01*
X139384819Y-82375594D02*
X138384819Y-82375594D01*
X138384819Y-82375594D02*
X138384819Y-81994642D01*
X138384819Y-81994642D02*
X138432438Y-81899404D01*
X138432438Y-81899404D02*
X138480057Y-81851785D01*
X138480057Y-81851785D02*
X138575295Y-81804166D01*
X138575295Y-81804166D02*
X138718152Y-81804166D01*
X138718152Y-81804166D02*
X138813390Y-81851785D01*
X138813390Y-81851785D02*
X138861009Y-81899404D01*
X138861009Y-81899404D02*
X138908628Y-81994642D01*
X138908628Y-81994642D02*
X138908628Y-82375594D01*
X138384819Y-81470832D02*
X138384819Y-80851785D01*
X138384819Y-80851785D02*
X138765771Y-81185118D01*
X138765771Y-81185118D02*
X138765771Y-81042261D01*
X138765771Y-81042261D02*
X138813390Y-80947023D01*
X138813390Y-80947023D02*
X138861009Y-80899404D01*
X138861009Y-80899404D02*
X138956247Y-80851785D01*
X138956247Y-80851785D02*
X139194342Y-80851785D01*
X139194342Y-80851785D02*
X139289580Y-80899404D01*
X139289580Y-80899404D02*
X139337200Y-80947023D01*
X139337200Y-80947023D02*
X139384819Y-81042261D01*
X139384819Y-81042261D02*
X139384819Y-81327975D01*
X139384819Y-81327975D02*
X139337200Y-81423213D01*
X139337200Y-81423213D02*
X139289580Y-81470832D01*
X145404819Y-81804166D02*
X144928628Y-82137499D01*
X145404819Y-82375594D02*
X144404819Y-82375594D01*
X144404819Y-82375594D02*
X144404819Y-81994642D01*
X144404819Y-81994642D02*
X144452438Y-81899404D01*
X144452438Y-81899404D02*
X144500057Y-81851785D01*
X144500057Y-81851785D02*
X144595295Y-81804166D01*
X144595295Y-81804166D02*
X144738152Y-81804166D01*
X144738152Y-81804166D02*
X144833390Y-81851785D01*
X144833390Y-81851785D02*
X144881009Y-81899404D01*
X144881009Y-81899404D02*
X144928628Y-81994642D01*
X144928628Y-81994642D02*
X144928628Y-82375594D01*
X144404819Y-80899404D02*
X144404819Y-81375594D01*
X144404819Y-81375594D02*
X144881009Y-81423213D01*
X144881009Y-81423213D02*
X144833390Y-81375594D01*
X144833390Y-81375594D02*
X144785771Y-81280356D01*
X144785771Y-81280356D02*
X144785771Y-81042261D01*
X144785771Y-81042261D02*
X144833390Y-80947023D01*
X144833390Y-80947023D02*
X144881009Y-80899404D01*
X144881009Y-80899404D02*
X144976247Y-80851785D01*
X144976247Y-80851785D02*
X145214342Y-80851785D01*
X145214342Y-80851785D02*
X145309580Y-80899404D01*
X145309580Y-80899404D02*
X145357200Y-80947023D01*
X145357200Y-80947023D02*
X145404819Y-81042261D01*
X145404819Y-81042261D02*
X145404819Y-81280356D01*
X145404819Y-81280356D02*
X145357200Y-81375594D01*
X145357200Y-81375594D02*
X145309580Y-81423213D01*
X163954819Y-113739523D02*
X164669104Y-113739523D01*
X164669104Y-113739523D02*
X164811961Y-113787142D01*
X164811961Y-113787142D02*
X164907200Y-113882380D01*
X164907200Y-113882380D02*
X164954819Y-114025237D01*
X164954819Y-114025237D02*
X164954819Y-114120475D01*
X164954819Y-112739523D02*
X164954819Y-113310951D01*
X164954819Y-113025237D02*
X163954819Y-113025237D01*
X163954819Y-113025237D02*
X164097676Y-113120475D01*
X164097676Y-113120475D02*
X164192914Y-113215713D01*
X164192914Y-113215713D02*
X164240533Y-113310951D01*
X164050057Y-112358570D02*
X164002438Y-112310951D01*
X164002438Y-112310951D02*
X163954819Y-112215713D01*
X163954819Y-112215713D02*
X163954819Y-111977618D01*
X163954819Y-111977618D02*
X164002438Y-111882380D01*
X164002438Y-111882380D02*
X164050057Y-111834761D01*
X164050057Y-111834761D02*
X164145295Y-111787142D01*
X164145295Y-111787142D02*
X164240533Y-111787142D01*
X164240533Y-111787142D02*
X164383390Y-111834761D01*
X164383390Y-111834761D02*
X164954819Y-112406189D01*
X164954819Y-112406189D02*
X164954819Y-111787142D01*
X168468095Y-112386719D02*
X168468095Y-111386719D01*
X168468095Y-111862909D02*
X169039523Y-111862909D01*
X169039523Y-112386719D02*
X169039523Y-111386719D01*
X169658571Y-111815290D02*
X169563333Y-111767671D01*
X169563333Y-111767671D02*
X169515714Y-111720052D01*
X169515714Y-111720052D02*
X169468095Y-111624814D01*
X169468095Y-111624814D02*
X169468095Y-111577195D01*
X169468095Y-111577195D02*
X169515714Y-111481957D01*
X169515714Y-111481957D02*
X169563333Y-111434338D01*
X169563333Y-111434338D02*
X169658571Y-111386719D01*
X169658571Y-111386719D02*
X169849047Y-111386719D01*
X169849047Y-111386719D02*
X169944285Y-111434338D01*
X169944285Y-111434338D02*
X169991904Y-111481957D01*
X169991904Y-111481957D02*
X170039523Y-111577195D01*
X170039523Y-111577195D02*
X170039523Y-111624814D01*
X170039523Y-111624814D02*
X169991904Y-111720052D01*
X169991904Y-111720052D02*
X169944285Y-111767671D01*
X169944285Y-111767671D02*
X169849047Y-111815290D01*
X169849047Y-111815290D02*
X169658571Y-111815290D01*
X169658571Y-111815290D02*
X169563333Y-111862909D01*
X169563333Y-111862909D02*
X169515714Y-111910528D01*
X169515714Y-111910528D02*
X169468095Y-112005766D01*
X169468095Y-112005766D02*
X169468095Y-112196242D01*
X169468095Y-112196242D02*
X169515714Y-112291480D01*
X169515714Y-112291480D02*
X169563333Y-112339100D01*
X169563333Y-112339100D02*
X169658571Y-112386719D01*
X169658571Y-112386719D02*
X169849047Y-112386719D01*
X169849047Y-112386719D02*
X169944285Y-112339100D01*
X169944285Y-112339100D02*
X169991904Y-112291480D01*
X169991904Y-112291480D02*
X170039523Y-112196242D01*
X170039523Y-112196242D02*
X170039523Y-112005766D01*
X170039523Y-112005766D02*
X169991904Y-111910528D01*
X169991904Y-111910528D02*
X169944285Y-111862909D01*
X169944285Y-111862909D02*
X169849047Y-111815290D01*
X168468095Y-63386719D02*
X168468095Y-62386719D01*
X168468095Y-62862909D02*
X169039523Y-62862909D01*
X169039523Y-63386719D02*
X169039523Y-62386719D01*
X169991904Y-62386719D02*
X169515714Y-62386719D01*
X169515714Y-62386719D02*
X169468095Y-62862909D01*
X169468095Y-62862909D02*
X169515714Y-62815290D01*
X169515714Y-62815290D02*
X169610952Y-62767671D01*
X169610952Y-62767671D02*
X169849047Y-62767671D01*
X169849047Y-62767671D02*
X169944285Y-62815290D01*
X169944285Y-62815290D02*
X169991904Y-62862909D01*
X169991904Y-62862909D02*
X170039523Y-62958147D01*
X170039523Y-62958147D02*
X170039523Y-63196242D01*
X170039523Y-63196242D02*
X169991904Y-63291480D01*
X169991904Y-63291480D02*
X169944285Y-63339100D01*
X169944285Y-63339100D02*
X169849047Y-63386719D01*
X169849047Y-63386719D02*
X169610952Y-63386719D01*
X169610952Y-63386719D02*
X169515714Y-63339100D01*
X169515714Y-63339100D02*
X169468095Y-63291480D01*
D11*
X141438095Y-63037419D02*
X141438095Y-63846942D01*
X141438095Y-63846942D02*
X141485714Y-63942180D01*
X141485714Y-63942180D02*
X141533333Y-63989800D01*
X141533333Y-63989800D02*
X141628571Y-64037419D01*
X141628571Y-64037419D02*
X141819047Y-64037419D01*
X141819047Y-64037419D02*
X141914285Y-63989800D01*
X141914285Y-63989800D02*
X141961904Y-63942180D01*
X141961904Y-63942180D02*
X142009523Y-63846942D01*
X142009523Y-63846942D02*
X142009523Y-63037419D01*
X142438095Y-63132657D02*
X142485714Y-63085038D01*
X142485714Y-63085038D02*
X142580952Y-63037419D01*
X142580952Y-63037419D02*
X142819047Y-63037419D01*
X142819047Y-63037419D02*
X142914285Y-63085038D01*
X142914285Y-63085038D02*
X142961904Y-63132657D01*
X142961904Y-63132657D02*
X143009523Y-63227895D01*
X143009523Y-63227895D02*
X143009523Y-63323133D01*
X143009523Y-63323133D02*
X142961904Y-63465990D01*
X142961904Y-63465990D02*
X142390476Y-64037419D01*
X142390476Y-64037419D02*
X143009523Y-64037419D01*
D10*
X157324295Y-118461619D02*
X157324295Y-117461619D01*
X157324295Y-117937809D02*
X157895723Y-117937809D01*
X157895723Y-118461619D02*
X157895723Y-117461619D01*
X158800485Y-117794952D02*
X158800485Y-118461619D01*
X158562390Y-117414000D02*
X158324295Y-118128285D01*
X158324295Y-118128285D02*
X158943342Y-118128285D01*
X142394819Y-81804166D02*
X141918628Y-82137499D01*
X142394819Y-82375594D02*
X141394819Y-82375594D01*
X141394819Y-82375594D02*
X141394819Y-81994642D01*
X141394819Y-81994642D02*
X141442438Y-81899404D01*
X141442438Y-81899404D02*
X141490057Y-81851785D01*
X141490057Y-81851785D02*
X141585295Y-81804166D01*
X141585295Y-81804166D02*
X141728152Y-81804166D01*
X141728152Y-81804166D02*
X141823390Y-81851785D01*
X141823390Y-81851785D02*
X141871009Y-81899404D01*
X141871009Y-81899404D02*
X141918628Y-81994642D01*
X141918628Y-81994642D02*
X141918628Y-82375594D01*
X141728152Y-80947023D02*
X142394819Y-80947023D01*
X141347200Y-81185118D02*
X142061485Y-81423213D01*
X142061485Y-81423213D02*
X142061485Y-80804166D01*
X175740476Y-113752819D02*
X175740476Y-114467104D01*
X175740476Y-114467104D02*
X175692857Y-114609961D01*
X175692857Y-114609961D02*
X175597619Y-114705200D01*
X175597619Y-114705200D02*
X175454762Y-114752819D01*
X175454762Y-114752819D02*
X175359524Y-114752819D01*
X176740476Y-114752819D02*
X176169048Y-114752819D01*
X176454762Y-114752819D02*
X176454762Y-113752819D01*
X176454762Y-113752819D02*
X176359524Y-113895676D01*
X176359524Y-113895676D02*
X176264286Y-113990914D01*
X176264286Y-113990914D02*
X176169048Y-114038533D01*
X177359524Y-113752819D02*
X177454762Y-113752819D01*
X177454762Y-113752819D02*
X177550000Y-113800438D01*
X177550000Y-113800438D02*
X177597619Y-113848057D01*
X177597619Y-113848057D02*
X177645238Y-113943295D01*
X177645238Y-113943295D02*
X177692857Y-114133771D01*
X177692857Y-114133771D02*
X177692857Y-114371866D01*
X177692857Y-114371866D02*
X177645238Y-114562342D01*
X177645238Y-114562342D02*
X177597619Y-114657580D01*
X177597619Y-114657580D02*
X177550000Y-114705200D01*
X177550000Y-114705200D02*
X177454762Y-114752819D01*
X177454762Y-114752819D02*
X177359524Y-114752819D01*
X177359524Y-114752819D02*
X177264286Y-114705200D01*
X177264286Y-114705200D02*
X177216667Y-114657580D01*
X177216667Y-114657580D02*
X177169048Y-114562342D01*
X177169048Y-114562342D02*
X177121429Y-114371866D01*
X177121429Y-114371866D02*
X177121429Y-114133771D01*
X177121429Y-114133771D02*
X177169048Y-113943295D01*
X177169048Y-113943295D02*
X177216667Y-113848057D01*
X177216667Y-113848057D02*
X177264286Y-113800438D01*
X177264286Y-113800438D02*
X177359524Y-113752819D01*
D11*
X184208094Y-94972580D02*
X184208094Y-94163057D01*
X184208094Y-94163057D02*
X184160475Y-94067819D01*
X184160475Y-94067819D02*
X184112856Y-94020200D01*
X184112856Y-94020200D02*
X184017618Y-93972580D01*
X184017618Y-93972580D02*
X183827142Y-93972580D01*
X183827142Y-93972580D02*
X183731904Y-94020200D01*
X183731904Y-94020200D02*
X183684285Y-94067819D01*
X183684285Y-94067819D02*
X183636666Y-94163057D01*
X183636666Y-94163057D02*
X183636666Y-94972580D01*
X182636666Y-93972580D02*
X183208094Y-93972580D01*
X182922380Y-93972580D02*
X182922380Y-94972580D01*
X182922380Y-94972580D02*
X183017618Y-94829723D01*
X183017618Y-94829723D02*
X183112856Y-94734485D01*
X183112856Y-94734485D02*
X183208094Y-94686866D01*
X182303332Y-94972580D02*
X181684285Y-94972580D01*
X181684285Y-94972580D02*
X182017618Y-94591628D01*
X182017618Y-94591628D02*
X181874761Y-94591628D01*
X181874761Y-94591628D02*
X181779523Y-94544009D01*
X181779523Y-94544009D02*
X181731904Y-94496390D01*
X181731904Y-94496390D02*
X181684285Y-94401152D01*
X181684285Y-94401152D02*
X181684285Y-94163057D01*
X181684285Y-94163057D02*
X181731904Y-94067819D01*
X181731904Y-94067819D02*
X181779523Y-94020200D01*
X181779523Y-94020200D02*
X181874761Y-93972580D01*
X181874761Y-93972580D02*
X182160475Y-93972580D01*
X182160475Y-93972580D02*
X182255713Y-94020200D01*
X182255713Y-94020200D02*
X182303332Y-94067819D01*
D10*
X99177200Y-116993432D02*
X99224819Y-116850575D01*
X99224819Y-116850575D02*
X99224819Y-116612480D01*
X99224819Y-116612480D02*
X99177200Y-116517242D01*
X99177200Y-116517242D02*
X99129580Y-116469623D01*
X99129580Y-116469623D02*
X99034342Y-116422004D01*
X99034342Y-116422004D02*
X98939104Y-116422004D01*
X98939104Y-116422004D02*
X98843866Y-116469623D01*
X98843866Y-116469623D02*
X98796247Y-116517242D01*
X98796247Y-116517242D02*
X98748628Y-116612480D01*
X98748628Y-116612480D02*
X98701009Y-116802956D01*
X98701009Y-116802956D02*
X98653390Y-116898194D01*
X98653390Y-116898194D02*
X98605771Y-116945813D01*
X98605771Y-116945813D02*
X98510533Y-116993432D01*
X98510533Y-116993432D02*
X98415295Y-116993432D01*
X98415295Y-116993432D02*
X98320057Y-116945813D01*
X98320057Y-116945813D02*
X98272438Y-116898194D01*
X98272438Y-116898194D02*
X98224819Y-116802956D01*
X98224819Y-116802956D02*
X98224819Y-116564861D01*
X98224819Y-116564861D02*
X98272438Y-116422004D01*
X98224819Y-116088670D02*
X99224819Y-115850575D01*
X99224819Y-115850575D02*
X98510533Y-115660099D01*
X98510533Y-115660099D02*
X99224819Y-115469623D01*
X99224819Y-115469623D02*
X98224819Y-115231528D01*
X98224819Y-114945813D02*
X98224819Y-114326766D01*
X98224819Y-114326766D02*
X98605771Y-114660099D01*
X98605771Y-114660099D02*
X98605771Y-114517242D01*
X98605771Y-114517242D02*
X98653390Y-114422004D01*
X98653390Y-114422004D02*
X98701009Y-114374385D01*
X98701009Y-114374385D02*
X98796247Y-114326766D01*
X98796247Y-114326766D02*
X99034342Y-114326766D01*
X99034342Y-114326766D02*
X99129580Y-114374385D01*
X99129580Y-114374385D02*
X99177200Y-114422004D01*
X99177200Y-114422004D02*
X99224819Y-114517242D01*
X99224819Y-114517242D02*
X99224819Y-114802956D01*
X99224819Y-114802956D02*
X99177200Y-114898194D01*
X99177200Y-114898194D02*
X99129580Y-114945813D01*
X107610666Y-125576819D02*
X107610666Y-126291104D01*
X107610666Y-126291104D02*
X107563047Y-126433961D01*
X107563047Y-126433961D02*
X107467809Y-126529200D01*
X107467809Y-126529200D02*
X107324952Y-126576819D01*
X107324952Y-126576819D02*
X107229714Y-126576819D01*
X108610666Y-126576819D02*
X108039238Y-126576819D01*
X108324952Y-126576819D02*
X108324952Y-125576819D01*
X108324952Y-125576819D02*
X108229714Y-125719676D01*
X108229714Y-125719676D02*
X108134476Y-125814914D01*
X108134476Y-125814914D02*
X108039238Y-125862533D01*
X186456666Y-121388819D02*
X186456666Y-122103104D01*
X186456666Y-122103104D02*
X186409047Y-122245961D01*
X186409047Y-122245961D02*
X186313809Y-122341200D01*
X186313809Y-122341200D02*
X186170952Y-122388819D01*
X186170952Y-122388819D02*
X186075714Y-122388819D01*
X186885238Y-121484057D02*
X186932857Y-121436438D01*
X186932857Y-121436438D02*
X187028095Y-121388819D01*
X187028095Y-121388819D02*
X187266190Y-121388819D01*
X187266190Y-121388819D02*
X187361428Y-121436438D01*
X187361428Y-121436438D02*
X187409047Y-121484057D01*
X187409047Y-121484057D02*
X187456666Y-121579295D01*
X187456666Y-121579295D02*
X187456666Y-121674533D01*
X187456666Y-121674533D02*
X187409047Y-121817390D01*
X187409047Y-121817390D02*
X186837619Y-122388819D01*
X186837619Y-122388819D02*
X187456666Y-122388819D01*
X99209200Y-121819432D02*
X99256819Y-121676575D01*
X99256819Y-121676575D02*
X99256819Y-121438480D01*
X99256819Y-121438480D02*
X99209200Y-121343242D01*
X99209200Y-121343242D02*
X99161580Y-121295623D01*
X99161580Y-121295623D02*
X99066342Y-121248004D01*
X99066342Y-121248004D02*
X98971104Y-121248004D01*
X98971104Y-121248004D02*
X98875866Y-121295623D01*
X98875866Y-121295623D02*
X98828247Y-121343242D01*
X98828247Y-121343242D02*
X98780628Y-121438480D01*
X98780628Y-121438480D02*
X98733009Y-121628956D01*
X98733009Y-121628956D02*
X98685390Y-121724194D01*
X98685390Y-121724194D02*
X98637771Y-121771813D01*
X98637771Y-121771813D02*
X98542533Y-121819432D01*
X98542533Y-121819432D02*
X98447295Y-121819432D01*
X98447295Y-121819432D02*
X98352057Y-121771813D01*
X98352057Y-121771813D02*
X98304438Y-121724194D01*
X98304438Y-121724194D02*
X98256819Y-121628956D01*
X98256819Y-121628956D02*
X98256819Y-121390861D01*
X98256819Y-121390861D02*
X98304438Y-121248004D01*
X98256819Y-120914670D02*
X99256819Y-120676575D01*
X99256819Y-120676575D02*
X98542533Y-120486099D01*
X98542533Y-120486099D02*
X99256819Y-120295623D01*
X99256819Y-120295623D02*
X98256819Y-120057528D01*
X98590152Y-119248004D02*
X99256819Y-119248004D01*
X98209200Y-119486099D02*
X98923485Y-119724194D01*
X98923485Y-119724194D02*
X98923485Y-119105147D01*
X175502666Y-126140819D02*
X175502666Y-126855104D01*
X175502666Y-126855104D02*
X175455047Y-126997961D01*
X175455047Y-126997961D02*
X175359809Y-127093200D01*
X175359809Y-127093200D02*
X175216952Y-127140819D01*
X175216952Y-127140819D02*
X175121714Y-127140819D01*
X176455047Y-126140819D02*
X175978857Y-126140819D01*
X175978857Y-126140819D02*
X175931238Y-126617009D01*
X175931238Y-126617009D02*
X175978857Y-126569390D01*
X175978857Y-126569390D02*
X176074095Y-126521771D01*
X176074095Y-126521771D02*
X176312190Y-126521771D01*
X176312190Y-126521771D02*
X176407428Y-126569390D01*
X176407428Y-126569390D02*
X176455047Y-126617009D01*
X176455047Y-126617009D02*
X176502666Y-126712247D01*
X176502666Y-126712247D02*
X176502666Y-126950342D01*
X176502666Y-126950342D02*
X176455047Y-127045580D01*
X176455047Y-127045580D02*
X176407428Y-127093200D01*
X176407428Y-127093200D02*
X176312190Y-127140819D01*
X176312190Y-127140819D02*
X176074095Y-127140819D01*
X176074095Y-127140819D02*
X175978857Y-127093200D01*
X175978857Y-127093200D02*
X175931238Y-127045580D01*
X101384666Y-63040819D02*
X101384666Y-63755104D01*
X101384666Y-63755104D02*
X101337047Y-63897961D01*
X101337047Y-63897961D02*
X101241809Y-63993200D01*
X101241809Y-63993200D02*
X101098952Y-64040819D01*
X101098952Y-64040819D02*
X101003714Y-64040819D01*
X102289428Y-63040819D02*
X102098952Y-63040819D01*
X102098952Y-63040819D02*
X102003714Y-63088438D01*
X102003714Y-63088438D02*
X101956095Y-63136057D01*
X101956095Y-63136057D02*
X101860857Y-63278914D01*
X101860857Y-63278914D02*
X101813238Y-63469390D01*
X101813238Y-63469390D02*
X101813238Y-63850342D01*
X101813238Y-63850342D02*
X101860857Y-63945580D01*
X101860857Y-63945580D02*
X101908476Y-63993200D01*
X101908476Y-63993200D02*
X102003714Y-64040819D01*
X102003714Y-64040819D02*
X102194190Y-64040819D01*
X102194190Y-64040819D02*
X102289428Y-63993200D01*
X102289428Y-63993200D02*
X102337047Y-63945580D01*
X102337047Y-63945580D02*
X102384666Y-63850342D01*
X102384666Y-63850342D02*
X102384666Y-63612247D01*
X102384666Y-63612247D02*
X102337047Y-63517009D01*
X102337047Y-63517009D02*
X102289428Y-63469390D01*
X102289428Y-63469390D02*
X102194190Y-63421771D01*
X102194190Y-63421771D02*
X102003714Y-63421771D01*
X102003714Y-63421771D02*
X101908476Y-63469390D01*
X101908476Y-63469390D02*
X101860857Y-63517009D01*
X101860857Y-63517009D02*
X101813238Y-63612247D01*
X99209200Y-107341432D02*
X99256819Y-107198575D01*
X99256819Y-107198575D02*
X99256819Y-106960480D01*
X99256819Y-106960480D02*
X99209200Y-106865242D01*
X99209200Y-106865242D02*
X99161580Y-106817623D01*
X99161580Y-106817623D02*
X99066342Y-106770004D01*
X99066342Y-106770004D02*
X98971104Y-106770004D01*
X98971104Y-106770004D02*
X98875866Y-106817623D01*
X98875866Y-106817623D02*
X98828247Y-106865242D01*
X98828247Y-106865242D02*
X98780628Y-106960480D01*
X98780628Y-106960480D02*
X98733009Y-107150956D01*
X98733009Y-107150956D02*
X98685390Y-107246194D01*
X98685390Y-107246194D02*
X98637771Y-107293813D01*
X98637771Y-107293813D02*
X98542533Y-107341432D01*
X98542533Y-107341432D02*
X98447295Y-107341432D01*
X98447295Y-107341432D02*
X98352057Y-107293813D01*
X98352057Y-107293813D02*
X98304438Y-107246194D01*
X98304438Y-107246194D02*
X98256819Y-107150956D01*
X98256819Y-107150956D02*
X98256819Y-106912861D01*
X98256819Y-106912861D02*
X98304438Y-106770004D01*
X98256819Y-106436670D02*
X99256819Y-106198575D01*
X99256819Y-106198575D02*
X98542533Y-106008099D01*
X98542533Y-106008099D02*
X99256819Y-105817623D01*
X99256819Y-105817623D02*
X98256819Y-105579528D01*
X99256819Y-104674766D02*
X99256819Y-105246194D01*
X99256819Y-104960480D02*
X98256819Y-104960480D01*
X98256819Y-104960480D02*
X98399676Y-105055718D01*
X98399676Y-105055718D02*
X98494914Y-105150956D01*
X98494914Y-105150956D02*
X98542533Y-105246194D01*
X173454595Y-77957719D02*
X173454595Y-76957719D01*
X173454595Y-77433909D02*
X174026023Y-77433909D01*
X174026023Y-77957719D02*
X174026023Y-76957719D01*
X174454595Y-77052957D02*
X174502214Y-77005338D01*
X174502214Y-77005338D02*
X174597452Y-76957719D01*
X174597452Y-76957719D02*
X174835547Y-76957719D01*
X174835547Y-76957719D02*
X174930785Y-77005338D01*
X174930785Y-77005338D02*
X174978404Y-77052957D01*
X174978404Y-77052957D02*
X175026023Y-77148195D01*
X175026023Y-77148195D02*
X175026023Y-77243433D01*
X175026023Y-77243433D02*
X174978404Y-77386290D01*
X174978404Y-77386290D02*
X174406976Y-77957719D01*
X174406976Y-77957719D02*
X175026023Y-77957719D01*
X121611995Y-118461619D02*
X121611995Y-117461619D01*
X121611995Y-117937809D02*
X122183423Y-117937809D01*
X122183423Y-118461619D02*
X122183423Y-117461619D01*
X122564376Y-117461619D02*
X123183423Y-117461619D01*
X123183423Y-117461619D02*
X122850090Y-117842571D01*
X122850090Y-117842571D02*
X122992947Y-117842571D01*
X122992947Y-117842571D02*
X123088185Y-117890190D01*
X123088185Y-117890190D02*
X123135804Y-117937809D01*
X123135804Y-117937809D02*
X123183423Y-118033047D01*
X123183423Y-118033047D02*
X123183423Y-118271142D01*
X123183423Y-118271142D02*
X123135804Y-118366380D01*
X123135804Y-118366380D02*
X123088185Y-118414000D01*
X123088185Y-118414000D02*
X122992947Y-118461619D01*
X122992947Y-118461619D02*
X122707233Y-118461619D01*
X122707233Y-118461619D02*
X122611995Y-118414000D01*
X122611995Y-118414000D02*
X122564376Y-118366380D01*
X110468095Y-63386719D02*
X110468095Y-62386719D01*
X110468095Y-62862909D02*
X111039523Y-62862909D01*
X111039523Y-63386719D02*
X111039523Y-62386719D01*
X111944285Y-62386719D02*
X111753809Y-62386719D01*
X111753809Y-62386719D02*
X111658571Y-62434338D01*
X111658571Y-62434338D02*
X111610952Y-62481957D01*
X111610952Y-62481957D02*
X111515714Y-62624814D01*
X111515714Y-62624814D02*
X111468095Y-62815290D01*
X111468095Y-62815290D02*
X111468095Y-63196242D01*
X111468095Y-63196242D02*
X111515714Y-63291480D01*
X111515714Y-63291480D02*
X111563333Y-63339100D01*
X111563333Y-63339100D02*
X111658571Y-63386719D01*
X111658571Y-63386719D02*
X111849047Y-63386719D01*
X111849047Y-63386719D02*
X111944285Y-63339100D01*
X111944285Y-63339100D02*
X111991904Y-63291480D01*
X111991904Y-63291480D02*
X112039523Y-63196242D01*
X112039523Y-63196242D02*
X112039523Y-62958147D01*
X112039523Y-62958147D02*
X111991904Y-62862909D01*
X111991904Y-62862909D02*
X111944285Y-62815290D01*
X111944285Y-62815290D02*
X111849047Y-62767671D01*
X111849047Y-62767671D02*
X111658571Y-62767671D01*
X111658571Y-62767671D02*
X111563333Y-62815290D01*
X111563333Y-62815290D02*
X111515714Y-62862909D01*
X111515714Y-62862909D02*
X111468095Y-62958147D01*
D11*
X123173595Y-62906419D02*
X123173595Y-63715942D01*
X123173595Y-63715942D02*
X123221214Y-63811180D01*
X123221214Y-63811180D02*
X123268833Y-63858800D01*
X123268833Y-63858800D02*
X123364071Y-63906419D01*
X123364071Y-63906419D02*
X123554547Y-63906419D01*
X123554547Y-63906419D02*
X123649785Y-63858800D01*
X123649785Y-63858800D02*
X123697404Y-63811180D01*
X123697404Y-63811180D02*
X123745023Y-63715942D01*
X123745023Y-63715942D02*
X123745023Y-62906419D01*
X124649785Y-63239752D02*
X124649785Y-63906419D01*
X124411690Y-62858800D02*
X124173595Y-63573085D01*
X124173595Y-63573085D02*
X124792642Y-63573085D01*
D10*
X184282819Y-85031333D02*
X184997104Y-85031333D01*
X184997104Y-85031333D02*
X185139961Y-85078952D01*
X185139961Y-85078952D02*
X185235200Y-85174190D01*
X185235200Y-85174190D02*
X185282819Y-85317047D01*
X185282819Y-85317047D02*
X185282819Y-85412285D01*
X185282819Y-84507523D02*
X185282819Y-84317047D01*
X185282819Y-84317047D02*
X185235200Y-84221809D01*
X185235200Y-84221809D02*
X185187580Y-84174190D01*
X185187580Y-84174190D02*
X185044723Y-84078952D01*
X185044723Y-84078952D02*
X184854247Y-84031333D01*
X184854247Y-84031333D02*
X184473295Y-84031333D01*
X184473295Y-84031333D02*
X184378057Y-84078952D01*
X184378057Y-84078952D02*
X184330438Y-84126571D01*
X184330438Y-84126571D02*
X184282819Y-84221809D01*
X184282819Y-84221809D02*
X184282819Y-84412285D01*
X184282819Y-84412285D02*
X184330438Y-84507523D01*
X184330438Y-84507523D02*
X184378057Y-84555142D01*
X184378057Y-84555142D02*
X184473295Y-84602761D01*
X184473295Y-84602761D02*
X184711390Y-84602761D01*
X184711390Y-84602761D02*
X184806628Y-84555142D01*
X184806628Y-84555142D02*
X184854247Y-84507523D01*
X184854247Y-84507523D02*
X184901866Y-84412285D01*
X184901866Y-84412285D02*
X184901866Y-84221809D01*
X184901866Y-84221809D02*
X184854247Y-84126571D01*
X184854247Y-84126571D02*
X184806628Y-84078952D01*
X184806628Y-84078952D02*
X184711390Y-84031333D01*
X110468095Y-112386719D02*
X110468095Y-111386719D01*
X110468095Y-111862909D02*
X111039523Y-111862909D01*
X111039523Y-112386719D02*
X111039523Y-111386719D01*
X111420476Y-111386719D02*
X112087142Y-111386719D01*
X112087142Y-111386719D02*
X111658571Y-112386719D01*
D11*
X92230419Y-79753094D02*
X93039942Y-79753094D01*
X93039942Y-79753094D02*
X93135180Y-79705475D01*
X93135180Y-79705475D02*
X93182800Y-79657856D01*
X93182800Y-79657856D02*
X93230419Y-79562618D01*
X93230419Y-79562618D02*
X93230419Y-79372142D01*
X93230419Y-79372142D02*
X93182800Y-79276904D01*
X93182800Y-79276904D02*
X93135180Y-79229285D01*
X93135180Y-79229285D02*
X93039942Y-79181666D01*
X93039942Y-79181666D02*
X92230419Y-79181666D01*
X93230419Y-78181666D02*
X93230419Y-78753094D01*
X93230419Y-78467380D02*
X92230419Y-78467380D01*
X92230419Y-78467380D02*
X92373276Y-78562618D01*
X92373276Y-78562618D02*
X92468514Y-78657856D01*
X92468514Y-78657856D02*
X92516133Y-78753094D01*
X92325657Y-77800713D02*
X92278038Y-77753094D01*
X92278038Y-77753094D02*
X92230419Y-77657856D01*
X92230419Y-77657856D02*
X92230419Y-77419761D01*
X92230419Y-77419761D02*
X92278038Y-77324523D01*
X92278038Y-77324523D02*
X92325657Y-77276904D01*
X92325657Y-77276904D02*
X92420895Y-77229285D01*
X92420895Y-77229285D02*
X92516133Y-77229285D01*
X92516133Y-77229285D02*
X92658990Y-77276904D01*
X92658990Y-77276904D02*
X93230419Y-77848332D01*
X93230419Y-77848332D02*
X93230419Y-77229285D01*
D10*
X144268819Y-98440094D02*
X145078342Y-98440094D01*
X145078342Y-98440094D02*
X145173580Y-98392475D01*
X145173580Y-98392475D02*
X145221200Y-98344856D01*
X145221200Y-98344856D02*
X145268819Y-98249618D01*
X145268819Y-98249618D02*
X145268819Y-98059142D01*
X145268819Y-98059142D02*
X145221200Y-97963904D01*
X145221200Y-97963904D02*
X145173580Y-97916285D01*
X145173580Y-97916285D02*
X145078342Y-97868666D01*
X145078342Y-97868666D02*
X144268819Y-97868666D01*
X145268819Y-96868666D02*
X145268819Y-97440094D01*
X145268819Y-97154380D02*
X144268819Y-97154380D01*
X144268819Y-97154380D02*
X144411676Y-97249618D01*
X144411676Y-97249618D02*
X144506914Y-97344856D01*
X144506914Y-97344856D02*
X144554533Y-97440094D01*
X144268819Y-96249618D02*
X144268819Y-96154380D01*
X144268819Y-96154380D02*
X144316438Y-96059142D01*
X144316438Y-96059142D02*
X144364057Y-96011523D01*
X144364057Y-96011523D02*
X144459295Y-95963904D01*
X144459295Y-95963904D02*
X144649771Y-95916285D01*
X144649771Y-95916285D02*
X144887866Y-95916285D01*
X144887866Y-95916285D02*
X145078342Y-95963904D01*
X145078342Y-95963904D02*
X145173580Y-96011523D01*
X145173580Y-96011523D02*
X145221200Y-96059142D01*
X145221200Y-96059142D02*
X145268819Y-96154380D01*
X145268819Y-96154380D02*
X145268819Y-96249618D01*
X145268819Y-96249618D02*
X145221200Y-96344856D01*
X145221200Y-96344856D02*
X145173580Y-96392475D01*
X145173580Y-96392475D02*
X145078342Y-96440094D01*
X145078342Y-96440094D02*
X144887866Y-96487713D01*
X144887866Y-96487713D02*
X144649771Y-96487713D01*
X144649771Y-96487713D02*
X144459295Y-96440094D01*
X144459295Y-96440094D02*
X144364057Y-96392475D01*
X144364057Y-96392475D02*
X144316438Y-96344856D01*
X144316438Y-96344856D02*
X144268819Y-96249618D01*
X174589819Y-74949523D02*
X173589819Y-74949523D01*
X173589819Y-74949523D02*
X174304104Y-74616190D01*
X174304104Y-74616190D02*
X173589819Y-74282857D01*
X173589819Y-74282857D02*
X174589819Y-74282857D01*
X173923152Y-73378095D02*
X174589819Y-73378095D01*
X173542200Y-73616190D02*
X174256485Y-73854285D01*
X174256485Y-73854285D02*
X174256485Y-73235238D01*
X181884819Y-86366666D02*
X181408628Y-86699999D01*
X181884819Y-86938094D02*
X180884819Y-86938094D01*
X180884819Y-86938094D02*
X180884819Y-86557142D01*
X180884819Y-86557142D02*
X180932438Y-86461904D01*
X180932438Y-86461904D02*
X180980057Y-86414285D01*
X180980057Y-86414285D02*
X181075295Y-86366666D01*
X181075295Y-86366666D02*
X181218152Y-86366666D01*
X181218152Y-86366666D02*
X181313390Y-86414285D01*
X181313390Y-86414285D02*
X181361009Y-86461904D01*
X181361009Y-86461904D02*
X181408628Y-86557142D01*
X181408628Y-86557142D02*
X181408628Y-86938094D01*
X181884819Y-85414285D02*
X181884819Y-85985713D01*
X181884819Y-85699999D02*
X180884819Y-85699999D01*
X180884819Y-85699999D02*
X181027676Y-85795237D01*
X181027676Y-85795237D02*
X181122914Y-85890475D01*
X181122914Y-85890475D02*
X181170533Y-85985713D01*
D11*
X150391919Y-74105904D02*
X151201442Y-74105904D01*
X151201442Y-74105904D02*
X151296680Y-74058285D01*
X151296680Y-74058285D02*
X151344300Y-74010666D01*
X151344300Y-74010666D02*
X151391919Y-73915428D01*
X151391919Y-73915428D02*
X151391919Y-73724952D01*
X151391919Y-73724952D02*
X151344300Y-73629714D01*
X151344300Y-73629714D02*
X151296680Y-73582095D01*
X151296680Y-73582095D02*
X151201442Y-73534476D01*
X151201442Y-73534476D02*
X150391919Y-73534476D01*
X150391919Y-73153523D02*
X150391919Y-72534476D01*
X150391919Y-72534476D02*
X150772871Y-72867809D01*
X150772871Y-72867809D02*
X150772871Y-72724952D01*
X150772871Y-72724952D02*
X150820490Y-72629714D01*
X150820490Y-72629714D02*
X150868109Y-72582095D01*
X150868109Y-72582095D02*
X150963347Y-72534476D01*
X150963347Y-72534476D02*
X151201442Y-72534476D01*
X151201442Y-72534476D02*
X151296680Y-72582095D01*
X151296680Y-72582095D02*
X151344300Y-72629714D01*
X151344300Y-72629714D02*
X151391919Y-72724952D01*
X151391919Y-72724952D02*
X151391919Y-73010666D01*
X151391919Y-73010666D02*
X151344300Y-73105904D01*
X151344300Y-73105904D02*
X151296680Y-73153523D01*
D12*
%TO.C,SW2*%
X88767700Y-108352700D02*
X88767700Y-109596249D01*
X88767700Y-111655751D02*
X88767700Y-112899300D01*
X88767700Y-112899300D02*
X97632300Y-112899300D01*
X97632300Y-108352700D02*
X88767700Y-108352700D01*
X97632300Y-109596249D02*
X97632300Y-108352700D01*
X97632300Y-112899300D02*
X97632300Y-111655751D01*
D13*
%TO.C,J8*%
X99170000Y-103310000D02*
X99170000Y-112430000D01*
X99170000Y-112430000D02*
X122290000Y-112430000D01*
X100470000Y-104620000D02*
X100470000Y-111120000D01*
X100470000Y-111120000D02*
X108680000Y-111120000D01*
X103880000Y-113820000D02*
X104380000Y-112820000D01*
X104380000Y-112820000D02*
X104880000Y-113820000D01*
X104880000Y-113820000D02*
X103880000Y-113820000D01*
X108680000Y-111120000D02*
X108680000Y-112430000D01*
X112780000Y-111120000D02*
X112780000Y-111120000D01*
X112780000Y-111120000D02*
X120990000Y-111120000D01*
X112780000Y-112430000D02*
X112780000Y-111120000D01*
X120990000Y-104620000D02*
X100470000Y-104620000D01*
X120990000Y-111120000D02*
X120990000Y-104620000D01*
X122290000Y-103310000D02*
X99170000Y-103310000D01*
X122290000Y-112430000D02*
X122290000Y-103310000D01*
D10*
%TO.C,U1*%
X87020000Y-90010000D02*
X88290000Y-90010000D01*
X87020000Y-97630000D02*
X87020000Y-90010000D01*
X88290000Y-84930000D02*
X149250000Y-84930000D01*
X88290000Y-97630000D02*
X87020000Y-97630000D01*
X88290000Y-102710000D02*
X88290000Y-84930000D01*
X93370000Y-90010000D02*
X88290000Y-90010000D01*
X93370000Y-97630000D02*
X88290000Y-97630000D01*
X93370000Y-97630000D02*
X93370000Y-90010000D01*
X94589200Y-97119200D02*
X97129200Y-97119200D01*
X94589200Y-97119200D02*
X107289200Y-97119200D01*
X94589200Y-99659200D02*
X94589200Y-97119200D01*
X97129200Y-97119200D02*
X97129200Y-99659200D01*
X101520000Y-87468400D02*
X101520000Y-87718400D01*
X101520000Y-87718400D02*
X101520000Y-93718400D01*
X101520000Y-93718400D02*
X105520000Y-93718400D01*
X105520000Y-87468400D02*
X101520000Y-87468400D01*
X105520000Y-93718400D02*
X105520000Y-87468400D01*
X107289200Y-97119200D02*
X107289200Y-99659200D01*
X107289200Y-99659200D02*
X94589200Y-99659200D01*
X111150000Y-87470000D02*
X111150000Y-100170000D01*
X111150000Y-100170000D02*
X123850000Y-100170000D01*
X123850000Y-87470000D02*
X111150000Y-87470000D01*
X123850000Y-100170000D02*
X123850000Y-87470000D01*
X128930000Y-92550000D02*
X132740000Y-92550000D01*
X128930000Y-95090000D02*
X128930000Y-92550000D01*
X132740000Y-92550000D02*
X132740000Y-95090000D01*
X132740000Y-95090000D02*
X128930000Y-95090000D01*
X136550000Y-87470000D02*
X136550000Y-100170000D01*
X136550000Y-100170000D02*
X149250000Y-100170000D01*
X147980000Y-88740000D02*
X147980000Y-98900000D01*
X147980000Y-98900000D02*
X149250000Y-98900000D01*
X149250000Y-84930000D02*
X149250000Y-102710000D01*
X149250000Y-87470000D02*
X136550000Y-87470000D01*
X149250000Y-88740000D02*
X147980000Y-88740000D01*
X149250000Y-102710000D02*
X88290000Y-102710000D01*
X131733026Y-93820000D02*
G75*
G02*
X129936974Y-93820000I-898026J0D01*
G01*
X129936974Y-93820000D02*
G75*
G02*
X131733026Y-93820000I898026J0D01*
G01*
D11*
X119681000Y-93132000D02*
X119427000Y-93386000D01*
X119173000Y-93005000D01*
X119427000Y-92751000D01*
X119681000Y-93132000D01*
G36*
X119681000Y-93132000D02*
G01*
X119427000Y-93386000D01*
X119173000Y-93005000D01*
X119427000Y-92751000D01*
X119681000Y-93132000D01*
G37*
X120062000Y-93640000D02*
X119808000Y-93894000D01*
X119554000Y-93513000D01*
X119808000Y-93259000D01*
X120062000Y-93640000D01*
G36*
X120062000Y-93640000D02*
G01*
X119808000Y-93894000D01*
X119554000Y-93513000D01*
X119808000Y-93259000D01*
X120062000Y-93640000D01*
G37*
X120443000Y-93259000D02*
X120189000Y-93513000D01*
X119935000Y-93132000D01*
X120189000Y-92878000D01*
X120443000Y-93259000D01*
G36*
X120443000Y-93259000D02*
G01*
X120189000Y-93513000D01*
X119935000Y-93132000D01*
X120189000Y-92878000D01*
X120443000Y-93259000D01*
G37*
X120443000Y-94148000D02*
X120189000Y-94402000D01*
X119935000Y-94021000D01*
X120189000Y-93767000D01*
X120443000Y-94148000D01*
G36*
X120443000Y-94148000D02*
G01*
X120189000Y-94402000D01*
X119935000Y-94021000D01*
X120189000Y-93767000D01*
X120443000Y-94148000D01*
G37*
X120824000Y-93767000D02*
X120570000Y-94021000D01*
X120316000Y-93640000D01*
X120570000Y-93386000D01*
X120824000Y-93767000D01*
G36*
X120824000Y-93767000D02*
G01*
X120570000Y-94021000D01*
X120316000Y-93640000D01*
X120570000Y-93386000D01*
X120824000Y-93767000D01*
G37*
X121205000Y-94275000D02*
X120951000Y-94529000D01*
X120697000Y-94148000D01*
X120951000Y-93894000D01*
X121205000Y-94275000D01*
G36*
X121205000Y-94275000D02*
G01*
X120951000Y-94529000D01*
X120697000Y-94148000D01*
X120951000Y-93894000D01*
X121205000Y-94275000D01*
G37*
X121586000Y-93894000D02*
X121332000Y-94148000D01*
X121078000Y-93767000D01*
X121332000Y-93513000D01*
X121586000Y-93894000D01*
G36*
X121586000Y-93894000D02*
G01*
X121332000Y-94148000D01*
X121078000Y-93767000D01*
X121332000Y-93513000D01*
X121586000Y-93894000D01*
G37*
X121967000Y-93513000D02*
X121713000Y-93767000D01*
X121459000Y-93386000D01*
X121713000Y-93132000D01*
X121967000Y-93513000D01*
G36*
X121967000Y-93513000D02*
G01*
X121713000Y-93767000D01*
X121459000Y-93386000D01*
X121713000Y-93132000D01*
X121967000Y-93513000D01*
G37*
D13*
%TO.C,U5*%
X175877500Y-66503000D02*
X175877500Y-76723000D01*
X178537500Y-63903000D02*
X177207500Y-63903000D01*
X178537500Y-65233000D02*
X178537500Y-63903000D01*
X178537500Y-66503000D02*
X175877500Y-66503000D01*
X178537500Y-66503000D02*
X178537500Y-76723000D01*
X178537500Y-76723000D02*
X175877500Y-76723000D01*
X188811000Y-64757000D02*
X190141000Y-64757000D01*
X188811000Y-66087000D02*
X188811000Y-64757000D01*
X188811000Y-67357000D02*
X188811000Y-69957000D01*
X188811000Y-67357000D02*
X188811000Y-77268000D01*
X188811000Y-67357000D02*
X191471000Y-67357000D01*
X191471000Y-64757000D02*
X190141000Y-64757000D01*
X191471000Y-66087000D02*
X191471000Y-64757000D01*
X191471000Y-67357000D02*
X188811000Y-67357000D01*
X191471000Y-67357000D02*
X191471000Y-69957000D01*
X191471000Y-67357000D02*
X191471000Y-77268000D01*
X191471000Y-69957000D02*
X188811000Y-69957000D01*
D11*
X174961000Y-63552000D02*
X191979000Y-63552000D01*
X191979000Y-77268000D01*
X174961000Y-77268000D01*
X174961000Y-63552000D01*
D13*
%TO.C,R2*%
X136865000Y-81898752D02*
X136865000Y-81376248D01*
X138335000Y-81898752D02*
X138335000Y-81376248D01*
%TO.C,J4*%
X173500000Y-93633000D02*
X174750000Y-93633000D01*
X173500000Y-94883000D02*
X173500000Y-93633000D01*
X173790000Y-93923000D02*
X181410000Y-93923000D01*
X173790000Y-99893000D02*
X173790000Y-93923000D01*
X173800000Y-93933000D02*
X175600000Y-93933000D01*
X173800000Y-94683000D02*
X173800000Y-93933000D01*
X174550000Y-96183000D02*
X173800000Y-96183000D01*
X174550000Y-97523000D02*
X174550000Y-96183000D01*
X175600000Y-93933000D02*
X175600000Y-94683000D01*
X175600000Y-94683000D02*
X173800000Y-94683000D01*
X175610000Y-99133000D02*
X177600000Y-99133000D01*
X177100000Y-93933000D02*
X178100000Y-93933000D01*
X177100000Y-94683000D02*
X177100000Y-93933000D01*
X177600000Y-99133000D02*
X180650000Y-99133000D01*
X178100000Y-93933000D02*
X178100000Y-94683000D01*
X178100000Y-94683000D02*
X177100000Y-94683000D01*
X179600000Y-93933000D02*
X181400000Y-93933000D01*
X179600000Y-94683000D02*
X179600000Y-93933000D01*
X180650000Y-96183000D02*
X181400000Y-96183000D01*
X180650000Y-99133000D02*
X180650000Y-96183000D01*
X181400000Y-93933000D02*
X181400000Y-94683000D01*
X181400000Y-94683000D02*
X179600000Y-94683000D01*
X181410000Y-93923000D02*
X181410000Y-99893000D01*
X181410000Y-99893000D02*
X173790000Y-99893000D01*
%TO.C,R3*%
X139875000Y-81898752D02*
X139875000Y-81376248D01*
X141345000Y-81898752D02*
X141345000Y-81376248D01*
%TO.C,R5*%
X145895000Y-81898752D02*
X145895000Y-81376248D01*
X147365000Y-81898752D02*
X147365000Y-81376248D01*
%TO.C,J12*%
X145570000Y-108370000D02*
X163610000Y-108370000D01*
X145570000Y-117490000D02*
X145570000Y-108370000D01*
X146870000Y-109680000D02*
X152540000Y-109680000D01*
X146870000Y-116180000D02*
X146870000Y-109680000D01*
X152540000Y-109680000D02*
X152540000Y-108370000D01*
X152540000Y-109680000D02*
X152540000Y-109680000D01*
X156640000Y-108370000D02*
X156640000Y-109680000D01*
X156640000Y-109680000D02*
X162310000Y-109680000D01*
X157900000Y-106980000D02*
X158400000Y-107980000D01*
X158400000Y-107980000D02*
X158900000Y-106980000D01*
X158900000Y-106980000D02*
X157900000Y-106980000D01*
X162310000Y-109680000D02*
X162310000Y-116180000D01*
X162310000Y-116180000D02*
X146870000Y-116180000D01*
X163610000Y-108370000D02*
X163610000Y-117490000D01*
X163610000Y-117490000D02*
X145570000Y-117490000D01*
%TO.C,U2*%
X134734500Y-67801000D02*
X134734500Y-78021000D01*
X137394500Y-65201000D02*
X136064500Y-65201000D01*
X137394500Y-66531000D02*
X137394500Y-65201000D01*
X137394500Y-67801000D02*
X134734500Y-67801000D01*
X137394500Y-67801000D02*
X137394500Y-78021000D01*
X137394500Y-78021000D02*
X134734500Y-78021000D01*
X147668000Y-66055000D02*
X148998000Y-66055000D01*
X147668000Y-67385000D02*
X147668000Y-66055000D01*
X147668000Y-68655000D02*
X147668000Y-71255000D01*
X147668000Y-68655000D02*
X147668000Y-78566000D01*
X147668000Y-68655000D02*
X150328000Y-68655000D01*
X150328000Y-66055000D02*
X148998000Y-66055000D01*
X150328000Y-67385000D02*
X150328000Y-66055000D01*
X150328000Y-68655000D02*
X147668000Y-68655000D01*
X150328000Y-68655000D02*
X150328000Y-71255000D01*
X150328000Y-68655000D02*
X150328000Y-78566000D01*
X150328000Y-71255000D02*
X147668000Y-71255000D01*
D11*
X133818000Y-64850000D02*
X150836000Y-64850000D01*
X150836000Y-78566000D01*
X133818000Y-78566000D01*
X133818000Y-64850000D01*
D13*
%TO.C,R4*%
X142885000Y-81898752D02*
X142885000Y-81376248D01*
X144355000Y-81898752D02*
X144355000Y-81376248D01*
%TO.C,J10*%
X172450000Y-114850000D02*
X172450000Y-116100000D01*
X172740000Y-115140000D02*
X172740000Y-121110000D01*
X172740000Y-121110000D02*
X180360000Y-121110000D01*
X172750000Y-115150000D02*
X172750000Y-115900000D01*
X172750000Y-115900000D02*
X174550000Y-115900000D01*
X172750000Y-117400000D02*
X173500000Y-117400000D01*
X173500000Y-117400000D02*
X173500000Y-118740000D01*
X173700000Y-114850000D02*
X172450000Y-114850000D01*
X174550000Y-115150000D02*
X172750000Y-115150000D01*
X174550000Y-115900000D02*
X174550000Y-115150000D01*
X176050000Y-115150000D02*
X176050000Y-115900000D01*
X176050000Y-115900000D02*
X177050000Y-115900000D01*
X176550000Y-120350000D02*
X174560000Y-120350000D01*
X177050000Y-115150000D02*
X176050000Y-115150000D01*
X177050000Y-115900000D02*
X177050000Y-115150000D01*
X178550000Y-115150000D02*
X178550000Y-115900000D01*
X178550000Y-115900000D02*
X180350000Y-115900000D01*
X179600000Y-117400000D02*
X179600000Y-120350000D01*
X179600000Y-120350000D02*
X176550000Y-120350000D01*
X180350000Y-115150000D02*
X178550000Y-115150000D01*
X180350000Y-115900000D02*
X180350000Y-115150000D01*
X180350000Y-117400000D02*
X179600000Y-117400000D01*
X180360000Y-115140000D02*
X172740000Y-115140000D01*
X180360000Y-121110000D02*
X180360000Y-115140000D01*
%TO.C,U13*%
D11*
X191870000Y-113830000D02*
X174070000Y-113830000D01*
X174070000Y-96030000D01*
X191870000Y-96030000D01*
X191870000Y-113830000D01*
D12*
%TO.C,SW3*%
X88735700Y-113178700D02*
X88735700Y-114422249D01*
X88735700Y-116481751D02*
X88735700Y-117725300D01*
X88735700Y-117725300D02*
X97600300Y-117725300D01*
X97600300Y-113178700D02*
X88735700Y-113178700D01*
X97600300Y-114422249D02*
X97600300Y-113178700D01*
X97600300Y-117725300D02*
X97600300Y-116481751D01*
D13*
%TO.C,J1*%
X98550000Y-118800000D02*
X98550000Y-120050000D01*
X98840000Y-119090000D02*
X98840000Y-125060000D01*
X98840000Y-125060000D02*
X111460000Y-125060000D01*
X98850000Y-119100000D02*
X98850000Y-119850000D01*
X98850000Y-119850000D02*
X100650000Y-119850000D01*
X98850000Y-121350000D02*
X99600000Y-121350000D01*
X99600000Y-121350000D02*
X99600000Y-122690000D01*
X99800000Y-118800000D02*
X98550000Y-118800000D01*
X100650000Y-119100000D02*
X98850000Y-119100000D01*
X100650000Y-119850000D02*
X100650000Y-119100000D01*
X102150000Y-119100000D02*
X102150000Y-119850000D01*
X102150000Y-119850000D02*
X108150000Y-119850000D01*
X105150000Y-124300000D02*
X100660000Y-124300000D01*
X108150000Y-119100000D02*
X102150000Y-119100000D01*
X108150000Y-119850000D02*
X108150000Y-119100000D01*
X109650000Y-119100000D02*
X109650000Y-119850000D01*
X109650000Y-119850000D02*
X111450000Y-119850000D01*
X110700000Y-121350000D02*
X110700000Y-124300000D01*
X110700000Y-124300000D02*
X105150000Y-124300000D01*
X111450000Y-119100000D02*
X109650000Y-119100000D01*
X111450000Y-119850000D02*
X111450000Y-119100000D01*
X111450000Y-121350000D02*
X110700000Y-121350000D01*
X111460000Y-119090000D02*
X98840000Y-119090000D01*
X111460000Y-125060000D02*
X111460000Y-119090000D01*
%TO.C,J2*%
X181440000Y-115090000D02*
X181440000Y-121060000D01*
X181440000Y-121060000D02*
X191560000Y-121060000D01*
X181450000Y-118800000D02*
X182200000Y-118800000D01*
X181450000Y-120300000D02*
X181450000Y-121050000D01*
X181450000Y-121050000D02*
X183250000Y-121050000D01*
X182200000Y-115850000D02*
X186500000Y-115850000D01*
X182200000Y-118800000D02*
X182200000Y-115850000D01*
X183250000Y-120300000D02*
X181450000Y-120300000D01*
X183250000Y-121050000D02*
X183250000Y-120300000D01*
X184750000Y-120300000D02*
X184750000Y-121050000D01*
X184750000Y-121050000D02*
X188250000Y-121050000D01*
X186500000Y-115850000D02*
X189740000Y-115850000D01*
X188250000Y-120300000D02*
X184750000Y-120300000D01*
X188250000Y-121050000D02*
X188250000Y-120300000D01*
X189750000Y-120300000D02*
X189750000Y-121050000D01*
X189750000Y-121050000D02*
X191550000Y-121050000D01*
X190600000Y-121350000D02*
X191850000Y-121350000D01*
X190800000Y-118800000D02*
X190800000Y-117460000D01*
X191550000Y-118800000D02*
X190800000Y-118800000D01*
X191550000Y-120300000D02*
X189750000Y-120300000D01*
X191550000Y-121050000D02*
X191550000Y-120300000D01*
X191560000Y-115090000D02*
X181440000Y-115090000D01*
X191560000Y-121060000D02*
X191560000Y-115090000D01*
X191850000Y-121350000D02*
X191850000Y-120100000D01*
D12*
%TO.C,SW4*%
X88767700Y-118004700D02*
X88767700Y-119248249D01*
X88767700Y-121307751D02*
X88767700Y-122551300D01*
X88767700Y-122551300D02*
X97632300Y-122551300D01*
X97632300Y-118004700D02*
X88767700Y-118004700D01*
X97632300Y-119248249D02*
X97632300Y-118004700D01*
X97632300Y-122551300D02*
X97632300Y-121307751D01*
D13*
%TO.C,J5*%
X165870000Y-123070000D02*
X165870000Y-125730000D01*
X178630000Y-123070000D02*
X165870000Y-123070000D01*
X178630000Y-123070000D02*
X178630000Y-125730000D01*
X178630000Y-125730000D02*
X165870000Y-125730000D01*
X179900000Y-123070000D02*
X181230000Y-123070000D01*
X181230000Y-123070000D02*
X181230000Y-124400000D01*
%TO.C,J6*%
X99000000Y-74000000D02*
X99000000Y-75250000D01*
X99000000Y-75250000D02*
X100250000Y-75250000D01*
X99290000Y-64840000D02*
X99290000Y-74960000D01*
X99290000Y-74960000D02*
X105260000Y-74960000D01*
X99300000Y-64850000D02*
X99300000Y-66650000D01*
X99300000Y-66650000D02*
X100050000Y-66650000D01*
X99300000Y-68150000D02*
X99300000Y-71650000D01*
X99300000Y-71650000D02*
X100050000Y-71650000D01*
X99300000Y-73150000D02*
X99300000Y-74950000D01*
X99300000Y-74950000D02*
X100050000Y-74950000D01*
X100050000Y-64850000D02*
X99300000Y-64850000D01*
X100050000Y-66650000D02*
X100050000Y-64850000D01*
X100050000Y-68150000D02*
X99300000Y-68150000D01*
X100050000Y-71650000D02*
X100050000Y-68150000D01*
X100050000Y-73150000D02*
X99300000Y-73150000D01*
X100050000Y-74950000D02*
X100050000Y-73150000D01*
X101550000Y-64850000D02*
X101550000Y-65600000D01*
X101550000Y-65600000D02*
X104500000Y-65600000D01*
X101550000Y-74200000D02*
X102890000Y-74200000D01*
X101550000Y-74950000D02*
X101550000Y-74200000D01*
X104500000Y-65600000D02*
X104500000Y-69900000D01*
X104500000Y-69900000D02*
X104500000Y-73140000D01*
X105260000Y-64840000D02*
X99290000Y-64840000D01*
X105260000Y-74960000D02*
X105260000Y-64840000D01*
D12*
%TO.C,SW1*%
X88767700Y-103526700D02*
X88767700Y-104770249D01*
X88767700Y-106829751D02*
X88767700Y-108073300D01*
X88767700Y-108073300D02*
X97632300Y-108073300D01*
X97632300Y-103526700D02*
X88767700Y-103526700D01*
X97632300Y-104770249D02*
X97632300Y-103526700D01*
X97632300Y-108073300D02*
X97632300Y-106829751D01*
D13*
%TO.C,U4*%
X116470000Y-67670000D02*
X116470000Y-77890000D01*
X119130000Y-65070000D02*
X117800000Y-65070000D01*
X119130000Y-66400000D02*
X119130000Y-65070000D01*
X119130000Y-67670000D02*
X116470000Y-67670000D01*
X119130000Y-67670000D02*
X119130000Y-77890000D01*
X119130000Y-77890000D02*
X116470000Y-77890000D01*
X129403500Y-65924000D02*
X130733500Y-65924000D01*
X129403500Y-67254000D02*
X129403500Y-65924000D01*
X129403500Y-68524000D02*
X129403500Y-71124000D01*
X129403500Y-68524000D02*
X129403500Y-78435000D01*
X129403500Y-68524000D02*
X132063500Y-68524000D01*
X132063500Y-65924000D02*
X130733500Y-65924000D01*
X132063500Y-67254000D02*
X132063500Y-65924000D01*
X132063500Y-68524000D02*
X129403500Y-68524000D01*
X132063500Y-68524000D02*
X132063500Y-71124000D01*
X132063500Y-68524000D02*
X132063500Y-78435000D01*
X132063500Y-71124000D02*
X129403500Y-71124000D01*
D11*
X115553500Y-64719000D02*
X132571500Y-64719000D01*
X132571500Y-78435000D01*
X115553500Y-78435000D01*
X115553500Y-64719000D01*
D13*
%TO.C,J9*%
X185890000Y-80440000D02*
X185890000Y-93060000D01*
X185890000Y-93060000D02*
X191860000Y-93060000D01*
X186650000Y-86750000D02*
X186650000Y-82260000D01*
X186650000Y-92300000D02*
X186650000Y-86750000D01*
X189600000Y-80450000D02*
X189600000Y-81200000D01*
X189600000Y-81200000D02*
X188260000Y-81200000D01*
X189600000Y-92300000D02*
X186650000Y-92300000D01*
X189600000Y-93050000D02*
X189600000Y-92300000D01*
X191100000Y-80450000D02*
X191100000Y-82250000D01*
X191100000Y-82250000D02*
X191850000Y-82250000D01*
X191100000Y-83750000D02*
X191100000Y-89750000D01*
X191100000Y-89750000D02*
X191850000Y-89750000D01*
X191100000Y-91250000D02*
X191100000Y-93050000D01*
X191100000Y-93050000D02*
X191850000Y-93050000D01*
X191850000Y-80450000D02*
X191100000Y-80450000D01*
X191850000Y-82250000D02*
X191850000Y-80450000D01*
X191850000Y-83750000D02*
X191100000Y-83750000D01*
X191850000Y-89750000D02*
X191850000Y-83750000D01*
X191850000Y-91250000D02*
X191100000Y-91250000D01*
X191850000Y-93050000D02*
X191850000Y-91250000D01*
X191860000Y-80440000D02*
X185890000Y-80440000D01*
X191860000Y-93060000D02*
X191860000Y-80440000D01*
X192150000Y-80150000D02*
X190900000Y-80150000D01*
X192150000Y-81400000D02*
X192150000Y-80150000D01*
%TO.C,U10*%
D11*
X150300000Y-87100000D02*
X171300000Y-87100000D01*
X171300000Y-106100000D01*
X150300000Y-106100000D01*
X150300000Y-87100000D01*
D13*
%TO.C,M4*%
X167075000Y-70330000D02*
X173045000Y-70330000D01*
X167075000Y-77950000D02*
X167075000Y-70330000D01*
X167835000Y-72150000D02*
X167835000Y-74140000D01*
X167835000Y-74140000D02*
X167835000Y-77190000D01*
X167835000Y-77190000D02*
X170785000Y-77190000D01*
X169445000Y-71090000D02*
X170785000Y-71090000D01*
X170785000Y-71090000D02*
X170785000Y-70340000D01*
X170785000Y-77190000D02*
X170785000Y-77940000D01*
X172085000Y-70040000D02*
X173335000Y-70040000D01*
X172285000Y-70340000D02*
X173035000Y-70340000D01*
X172285000Y-72140000D02*
X172285000Y-70340000D01*
X172285000Y-73640000D02*
X173035000Y-73640000D01*
X172285000Y-74640000D02*
X172285000Y-73640000D01*
X172285000Y-76140000D02*
X173035000Y-76140000D01*
X172285000Y-77940000D02*
X172285000Y-76140000D01*
X173035000Y-70340000D02*
X173035000Y-72140000D01*
X173035000Y-72140000D02*
X172285000Y-72140000D01*
X173035000Y-73640000D02*
X173035000Y-74640000D01*
X173035000Y-74640000D02*
X172285000Y-74640000D01*
X173035000Y-76140000D02*
X173035000Y-77940000D01*
X173035000Y-77940000D02*
X172285000Y-77940000D01*
X173045000Y-70330000D02*
X173045000Y-77950000D01*
X173045000Y-77950000D02*
X167075000Y-77950000D01*
X173335000Y-70040000D02*
X173335000Y-71290000D01*
%TO.C,U11*%
D11*
X126100000Y-125230000D02*
X143900000Y-125230000D01*
X143900000Y-104930000D01*
X126100000Y-104930000D01*
X126100000Y-125230000D01*
D13*
%TO.C,R1*%
X182430000Y-82930000D02*
X182430000Y-89470000D01*
X182430000Y-89470000D02*
X185170000Y-89470000D01*
X183800000Y-82160000D02*
X183800000Y-82930000D01*
X183800000Y-90240000D02*
X183800000Y-89470000D01*
X185170000Y-82930000D02*
X182430000Y-82930000D01*
X185170000Y-89470000D02*
X185170000Y-82930000D01*
%TO.C,U3*%
X152555500Y-78149500D02*
X152555500Y-79479500D01*
X153409500Y-65216000D02*
X153409500Y-66546000D01*
X153409500Y-67876000D02*
X153409500Y-66546000D01*
X153885500Y-78149500D02*
X152555500Y-78149500D01*
X154739500Y-65216000D02*
X153409500Y-65216000D01*
X154739500Y-67876000D02*
X153409500Y-67876000D01*
X155155500Y-78149500D02*
X155155500Y-80809500D01*
X155155500Y-78149500D02*
X165375500Y-78149500D01*
X155155500Y-80809500D02*
X165375500Y-80809500D01*
X156009500Y-65216000D02*
X156009500Y-67876000D01*
X156009500Y-65216000D02*
X158609500Y-65216000D01*
X156009500Y-65216000D02*
X165920500Y-65216000D01*
X156009500Y-67876000D02*
X156009500Y-65216000D01*
X156009500Y-67876000D02*
X158609500Y-67876000D01*
X156009500Y-67876000D02*
X165920500Y-67876000D01*
X158609500Y-65216000D02*
X158609500Y-67876000D01*
X165375500Y-78149500D02*
X165375500Y-80809500D01*
D11*
X152204500Y-81726000D02*
X165920500Y-81726000D01*
X165920500Y-64708000D01*
X152204500Y-64708000D01*
X152204500Y-81726000D01*
%TD*%
%LPC*%
D14*
%TO.C,SW2*%
X91200000Y-110626000D03*
D15*
X93200000Y-110626000D03*
X95200001Y-110626000D03*
%TD*%
D16*
%TO.C,J8*%
X104380000Y-109140000D03*
D17*
X104380000Y-106600000D03*
X106920000Y-109140000D03*
X106920000Y-106600000D03*
X109460000Y-109140000D03*
X109460000Y-106600000D03*
X112000000Y-109140000D03*
X112000000Y-106600000D03*
X114540000Y-109140000D03*
X114540000Y-106600000D03*
X117080000Y-109140000D03*
X117080000Y-106600000D03*
%TD*%
D18*
%TO.C,U1*%
X89560000Y-101440000D03*
D19*
X92100000Y-101440000D03*
X94640000Y-101440000D03*
X97180000Y-101440000D03*
X99720000Y-101440000D03*
X102260000Y-101440000D03*
X104800000Y-101440000D03*
X107340000Y-101440000D03*
X109880000Y-101440000D03*
X112420000Y-101440000D03*
X114960000Y-101440000D03*
X117500000Y-101440000D03*
X120040000Y-101440000D03*
X122580000Y-101440000D03*
X125120000Y-101440000D03*
X127660000Y-101440000D03*
X130200000Y-101440000D03*
X132740000Y-101440000D03*
X135280000Y-101440000D03*
X137820000Y-101440000D03*
X140360000Y-101440000D03*
X142900000Y-101440000D03*
X145440000Y-101440000D03*
X147980000Y-101440000D03*
X147980000Y-86200000D03*
X145440000Y-86200000D03*
X142900000Y-86200000D03*
X140360000Y-86200000D03*
X137820000Y-86200000D03*
X135280000Y-86200000D03*
X132740000Y-86200000D03*
X130200000Y-86200000D03*
X127660000Y-86200000D03*
X125120000Y-86200000D03*
X122580000Y-86200000D03*
X120040000Y-86200000D03*
X117500000Y-86200000D03*
X114960000Y-86200000D03*
X112420000Y-86200000D03*
X109880000Y-86200000D03*
X107340000Y-86200000D03*
X104800000Y-86200000D03*
X102260000Y-86200000D03*
X99720000Y-86200000D03*
X97180000Y-86200000D03*
X94640000Y-86200000D03*
X92100000Y-86200000D03*
X89560000Y-86200000D03*
%TD*%
D20*
%TO.C,U5*%
X177207500Y-65233000D03*
D21*
X177207500Y-67773000D03*
X177207500Y-70313000D03*
X177207500Y-72853000D03*
X177207500Y-75393000D03*
D20*
X190141000Y-66087000D03*
D21*
X190141000Y-68627000D03*
X190141000Y-71167000D03*
X190141000Y-73707000D03*
X190141000Y-76247000D03*
%TD*%
D22*
%TO.C,R2*%
X137600000Y-82675000D03*
X137600000Y-80600000D03*
%TD*%
D23*
%TO.C,J4*%
X176350000Y-96383000D03*
D24*
X178850000Y-96383000D03*
%TD*%
D25*
%TO.C,H1*%
X106243500Y-81302900D03*
%TD*%
D22*
%TO.C,R3*%
X140610000Y-82675000D03*
X140610000Y-80600000D03*
%TD*%
%TO.C,R5*%
X146630000Y-82675000D03*
X146630000Y-80600000D03*
%TD*%
D26*
%TO.C,J12*%
X158400000Y-111660000D03*
D17*
X158400000Y-114200000D03*
X155860000Y-111660000D03*
X155860000Y-114200000D03*
X153320000Y-111660000D03*
X153320000Y-114200000D03*
X150780000Y-111660000D03*
X150780000Y-114200000D03*
%TD*%
D25*
%TO.C,H8*%
X169230000Y-115731900D03*
%TD*%
%TO.C,H5*%
X169230000Y-66731900D03*
%TD*%
D20*
%TO.C,U2*%
X136064500Y-66531000D03*
D21*
X136064500Y-69071000D03*
X136064500Y-71611000D03*
X136064500Y-74151000D03*
X136064500Y-76691000D03*
D20*
X148998000Y-67385000D03*
D21*
X148998000Y-69925000D03*
X148998000Y-72465000D03*
X148998000Y-75005000D03*
X148998000Y-77545000D03*
%TD*%
D25*
%TO.C,H4*%
X158086200Y-121806800D03*
%TD*%
D22*
%TO.C,R4*%
X143620000Y-82675000D03*
X143620000Y-80600000D03*
%TD*%
D23*
%TO.C,J10*%
X175300000Y-117600000D03*
D24*
X177800000Y-117600000D03*
%TD*%
D27*
%TO.C,U13*%
X190600000Y-112560000D03*
X190600000Y-110020000D03*
X190600000Y-107480000D03*
X190600000Y-104940000D03*
X190600000Y-102400000D03*
%TD*%
D14*
%TO.C,SW3*%
X91168000Y-115452000D03*
D15*
X93168000Y-115452000D03*
X95168001Y-115452000D03*
%TD*%
D28*
%TO.C,J1*%
X101400000Y-121550000D03*
D29*
X103900000Y-121550000D03*
X106400000Y-121550000D03*
X108900000Y-121550000D03*
%TD*%
D30*
%TO.C,J2*%
X189000000Y-118600000D03*
D29*
X186500000Y-118600000D03*
X184000000Y-118600000D03*
%TD*%
D14*
%TO.C,SW4*%
X91200000Y-120278000D03*
D15*
X93200000Y-120278000D03*
X95200001Y-120278000D03*
%TD*%
D20*
%TO.C,J5*%
X179900000Y-124400000D03*
D21*
X177360000Y-124400000D03*
X174820000Y-124400000D03*
X172280000Y-124400000D03*
X169740000Y-124400000D03*
X167200000Y-124400000D03*
%TD*%
D31*
%TO.C,J6*%
X101750000Y-72400000D03*
D32*
X101750000Y-69900000D03*
X101750000Y-67400000D03*
%TD*%
D14*
%TO.C,SW1*%
X91200000Y-105800000D03*
D15*
X93200000Y-105800000D03*
X95200001Y-105800000D03*
%TD*%
D25*
%TO.C,H2*%
X174216500Y-81302900D03*
%TD*%
%TO.C,H3*%
X122373900Y-121806800D03*
%TD*%
%TO.C,H6*%
X111230000Y-66731900D03*
%TD*%
D20*
%TO.C,U4*%
X117800000Y-66400000D03*
D21*
X117800000Y-68940000D03*
X117800000Y-71480000D03*
X117800000Y-74020000D03*
X117800000Y-76560000D03*
D20*
X130733500Y-67254000D03*
D21*
X130733500Y-69794000D03*
X130733500Y-72334000D03*
X130733500Y-74874000D03*
X130733500Y-77414000D03*
%TD*%
D33*
%TO.C,J9*%
X189400000Y-83000000D03*
D32*
X189400000Y-85500000D03*
X189400000Y-88000000D03*
X189400000Y-90500000D03*
%TD*%
D25*
%TO.C,H7*%
X111230000Y-115731900D03*
%TD*%
D34*
%TO.C,U12*%
X93273000Y-78515000D03*
X93273000Y-71415000D03*
%TD*%
D27*
%TO.C,U10*%
X151570000Y-93400000D03*
X151570000Y-95940000D03*
X151570000Y-98480000D03*
X151570000Y-101020000D03*
X151570000Y-103560000D03*
X170030000Y-93400000D03*
X170030000Y-98480000D03*
X170030000Y-103560000D03*
X170030000Y-95940000D03*
X170030000Y-101020000D03*
%TD*%
D35*
%TO.C,M4*%
X170585000Y-72890000D03*
D36*
X170585000Y-75390000D03*
%TD*%
D27*
%TO.C,U11*%
X132470000Y-123960000D03*
X135010000Y-123960000D03*
X137550000Y-123960000D03*
X140090000Y-123960000D03*
X142630000Y-123960000D03*
%TD*%
D19*
%TO.C,R1*%
X183800000Y-91280000D03*
D37*
X183800000Y-81120000D03*
%TD*%
D20*
%TO.C,U3*%
X153885500Y-79479500D03*
D21*
X156425500Y-79479500D03*
X158965500Y-79479500D03*
X161505500Y-79479500D03*
X164045500Y-79479500D03*
D20*
X154739500Y-66546000D03*
D21*
X157279500Y-66546000D03*
X159819500Y-66546000D03*
X162359500Y-66546000D03*
X164899500Y-66546000D03*
%TD*%
D30*
%TO.C,U6*%
X158200000Y-85400000D03*
D29*
X155700000Y-85400000D03*
X153200000Y-85400000D03*
%TD*%
D35*
%TO.C,M1*%
X142305000Y-69884100D03*
D36*
X142305000Y-72384100D03*
%TD*%
D35*
%TO.C,M3*%
X124200000Y-71000000D03*
D36*
X124200000Y-73500000D03*
%TD*%
D38*
%TO.C,D1*%
X166900000Y-85400000D03*
D24*
X164400000Y-85400000D03*
%TD*%
D35*
%TO.C,M2*%
X155800000Y-71825000D03*
D36*
X155800000Y-74325000D03*
%TD*%
%LPD*%
M02*
