%TF.GenerationSoftware,KiCad,Pcbnew,8.0.0-dirty*%
%TF.CreationDate,2024-04-13T23:45:36-04:00*%
%TF.ProjectId,MainPCB,4d61696e-5043-4422-9e6b-696361645f70,rev?*%
%TF.SameCoordinates,Original*%
%TF.FileFunction,Soldermask,Bot*%
%TF.FilePolarity,Negative*%
%FSLAX46Y46*%
G04 Gerber Fmt 4.6, Leading zero omitted, Abs format (unit mm)*
G04 Created by KiCad (PCBNEW 8.0.0-dirty) date 2024-04-13 23:45:36*
%MOMM*%
%LPD*%
G01*
G04 APERTURE LIST*
G04 Aperture macros list*
%AMRoundRect*
0 Rectangle with rounded corners*
0 $1 Rounding radius*
0 $2 $3 $4 $5 $6 $7 $8 $9 X,Y pos of 4 corners*
0 Add a 4 corners polygon primitive as box body*
4,1,4,$2,$3,$4,$5,$6,$7,$8,$9,$2,$3,0*
0 Add four circle primitives for the rounded corners*
1,1,$1+$1,$2,$3*
1,1,$1+$1,$4,$5*
1,1,$1+$1,$6,$7*
1,1,$1+$1,$8,$9*
0 Add four rect primitives between the rounded corners*
20,1,$1+$1,$2,$3,$4,$5,0*
20,1,$1+$1,$4,$5,$6,$7,0*
20,1,$1+$1,$6,$7,$8,$9,0*
20,1,$1+$1,$8,$9,$2,$3,0*%
G04 Aperture macros list end*
%ADD10RoundRect,0.250000X-0.600000X-0.725000X0.600000X-0.725000X0.600000X0.725000X-0.600000X0.725000X0*%
%ADD11O,1.700000X1.950000*%
%ADD12C,1.700000*%
%ADD13RoundRect,0.250000X0.600000X-0.600000X0.600000X0.600000X-0.600000X0.600000X-0.600000X-0.600000X0*%
%ADD14C,5.600000*%
%ADD15C,1.524000*%
%ADD16R,1.295400X1.295400*%
%ADD17C,1.295400*%
%ADD18R,1.600000X1.600000*%
%ADD19C,1.600000*%
%ADD20R,1.700000X1.700000*%
%ADD21O,1.700000X1.700000*%
%ADD22RoundRect,0.250000X-0.600000X-0.750000X0.600000X-0.750000X0.600000X0.750000X-0.600000X0.750000X0*%
%ADD23O,1.700000X2.000000*%
%ADD24RoundRect,0.250000X-0.600000X0.600000X-0.600000X-0.600000X0.600000X-0.600000X0.600000X0.600000X0*%
%ADD25RoundRect,0.250000X0.600000X0.725000X-0.600000X0.725000X-0.600000X-0.725000X0.600000X-0.725000X0*%
%ADD26RoundRect,0.250000X0.725000X-0.600000X0.725000X0.600000X-0.725000X0.600000X-0.725000X-0.600000X0*%
%ADD27O,1.950000X1.700000*%
%ADD28RoundRect,0.250000X-0.725000X0.600000X-0.725000X-0.600000X0.725000X-0.600000X0.725000X0.600000X0*%
%ADD29O,6.000000X2.000000*%
%ADD30RoundRect,0.250000X-0.750000X0.600000X-0.750000X-0.600000X0.750000X-0.600000X0.750000X0.600000X0*%
%ADD31O,2.000000X1.700000*%
%ADD32O,1.600000X1.600000*%
%ADD33RoundRect,2.000000X2.000000X-2.000000X2.000000X2.000000X-2.000000X2.000000X-2.000000X-2.000000X0*%
%ADD34RoundRect,0.250000X0.600000X0.750000X-0.600000X0.750000X-0.600000X-0.750000X0.600000X-0.750000X0*%
G04 APERTURE END LIST*
D10*
%TO.C,J1*%
X101400000Y-121550000D03*
D11*
X103900000Y-121550000D03*
X106400000Y-121550000D03*
X108900000Y-121550000D03*
%TD*%
D12*
%TO.C,J8*%
X117080000Y-106600000D03*
X117080000Y-109140000D03*
X114540000Y-106600000D03*
X114540000Y-109140000D03*
X112000000Y-106600000D03*
X112000000Y-109140000D03*
X109460000Y-106600000D03*
X109460000Y-109140000D03*
X106920000Y-106600000D03*
X106920000Y-109140000D03*
X104380000Y-106600000D03*
D13*
X104380000Y-109140000D03*
%TD*%
D14*
%TO.C,H8*%
X169230000Y-115731900D03*
%TD*%
%TO.C,H7*%
X111230000Y-115731900D03*
%TD*%
%TO.C,H6*%
X111230000Y-66731900D03*
%TD*%
%TO.C,H5*%
X169230000Y-66731900D03*
%TD*%
D15*
%TO.C,U11*%
X132470000Y-123960000D03*
X135010000Y-123960000D03*
X137550000Y-123960000D03*
X140090000Y-123960000D03*
X142630000Y-123960000D03*
%TD*%
D16*
%TO.C,SW2*%
X91200000Y-110626000D03*
D17*
X93200000Y-110626000D03*
X95200001Y-110626000D03*
%TD*%
D18*
%TO.C,U1*%
X89560000Y-101440000D03*
D19*
X92100000Y-101440000D03*
X94640000Y-101440000D03*
X97180000Y-101440000D03*
X99720000Y-101440000D03*
X102260000Y-101440000D03*
X104800000Y-101440000D03*
X107340000Y-101440000D03*
X109880000Y-101440000D03*
X112420000Y-101440000D03*
X114960000Y-101440000D03*
X117500000Y-101440000D03*
X120040000Y-101440000D03*
X122580000Y-101440000D03*
X125120000Y-101440000D03*
X127660000Y-101440000D03*
X130200000Y-101440000D03*
X132740000Y-101440000D03*
X135280000Y-101440000D03*
X137820000Y-101440000D03*
X140360000Y-101440000D03*
X142900000Y-101440000D03*
X145440000Y-101440000D03*
X147980000Y-101440000D03*
X147980000Y-86200000D03*
X145440000Y-86200000D03*
X142900000Y-86200000D03*
X140360000Y-86200000D03*
X137820000Y-86200000D03*
X135280000Y-86200000D03*
X132740000Y-86200000D03*
X130200000Y-86200000D03*
X127660000Y-86200000D03*
X125120000Y-86200000D03*
X122580000Y-86200000D03*
X120040000Y-86200000D03*
X117500000Y-86200000D03*
X114960000Y-86200000D03*
X112420000Y-86200000D03*
X109880000Y-86200000D03*
X107340000Y-86200000D03*
X104800000Y-86200000D03*
X102260000Y-86200000D03*
X99720000Y-86200000D03*
X97180000Y-86200000D03*
X94640000Y-86200000D03*
X92100000Y-86200000D03*
X89560000Y-86200000D03*
%TD*%
D20*
%TO.C,U5*%
X177207500Y-65233000D03*
D21*
X177207500Y-67773000D03*
X177207500Y-70313000D03*
X177207500Y-72853000D03*
X177207500Y-75393000D03*
D20*
X190141000Y-66087000D03*
D21*
X190141000Y-68627000D03*
X190141000Y-71167000D03*
X190141000Y-73707000D03*
X190141000Y-76247000D03*
%TD*%
D22*
%TO.C,J4*%
X176350000Y-96383000D03*
D23*
X178850000Y-96383000D03*
%TD*%
D14*
%TO.C,H1*%
X106243500Y-81302900D03*
%TD*%
D24*
%TO.C,J12*%
X158400000Y-111660000D03*
D12*
X158400000Y-114200000D03*
X155860000Y-111660000D03*
X155860000Y-114200000D03*
X153320000Y-111660000D03*
X153320000Y-114200000D03*
X150780000Y-111660000D03*
X150780000Y-114200000D03*
%TD*%
D20*
%TO.C,U2*%
X136064500Y-66531000D03*
D21*
X136064500Y-69071000D03*
X136064500Y-71611000D03*
X136064500Y-74151000D03*
X136064500Y-76691000D03*
D20*
X148998000Y-67385000D03*
D21*
X148998000Y-69925000D03*
X148998000Y-72465000D03*
X148998000Y-75005000D03*
X148998000Y-77545000D03*
%TD*%
D14*
%TO.C,H4*%
X158086200Y-121806800D03*
%TD*%
D22*
%TO.C,J10*%
X175300000Y-117600000D03*
D23*
X177800000Y-117600000D03*
%TD*%
D15*
%TO.C,U13*%
X190600000Y-112560000D03*
X190600000Y-110020000D03*
X190600000Y-107480000D03*
X190600000Y-104940000D03*
X190600000Y-102400000D03*
%TD*%
D16*
%TO.C,SW3*%
X91168000Y-115452000D03*
D17*
X93168000Y-115452000D03*
X95168001Y-115452000D03*
%TD*%
D25*
%TO.C,J2*%
X189000000Y-118600000D03*
D11*
X186500000Y-118600000D03*
X184000000Y-118600000D03*
%TD*%
D16*
%TO.C,SW4*%
X91200000Y-120278000D03*
D17*
X93200000Y-120278000D03*
X95200001Y-120278000D03*
%TD*%
D20*
%TO.C,J5*%
X179900000Y-124400000D03*
D21*
X177360000Y-124400000D03*
X174820000Y-124400000D03*
X172280000Y-124400000D03*
X169740000Y-124400000D03*
X167200000Y-124400000D03*
%TD*%
D26*
%TO.C,J6*%
X101750000Y-72400000D03*
D27*
X101750000Y-69900000D03*
X101750000Y-67400000D03*
%TD*%
D16*
%TO.C,SW1*%
X91200000Y-105800000D03*
D17*
X93200000Y-105800000D03*
X95200001Y-105800000D03*
%TD*%
D14*
%TO.C,H2*%
X174216500Y-81302900D03*
%TD*%
%TO.C,H3*%
X122373900Y-121806800D03*
%TD*%
D20*
%TO.C,U4*%
X117800000Y-66400000D03*
D21*
X117800000Y-68940000D03*
X117800000Y-71480000D03*
X117800000Y-74020000D03*
X117800000Y-76560000D03*
D20*
X130733500Y-67254000D03*
D21*
X130733500Y-69794000D03*
X130733500Y-72334000D03*
X130733500Y-74874000D03*
X130733500Y-77414000D03*
%TD*%
D28*
%TO.C,J9*%
X189400000Y-83000000D03*
D27*
X189400000Y-85500000D03*
X189400000Y-88000000D03*
X189400000Y-90500000D03*
%TD*%
D29*
%TO.C,U12*%
X93273000Y-78515000D03*
X93273000Y-71415000D03*
%TD*%
D15*
%TO.C,U10*%
X151570000Y-93400000D03*
X151570000Y-95940000D03*
X151570000Y-98480000D03*
X151570000Y-101020000D03*
X151570000Y-103560000D03*
X170030000Y-93400000D03*
X170030000Y-98480000D03*
X170030000Y-103560000D03*
X170030000Y-95940000D03*
X170030000Y-101020000D03*
%TD*%
D30*
%TO.C,M4*%
X170585000Y-72890000D03*
D31*
X170585000Y-75390000D03*
%TD*%
D19*
%TO.C,R1*%
X183800000Y-91280000D03*
D32*
X183800000Y-81120000D03*
%TD*%
D20*
%TO.C,U3*%
X153885500Y-79479500D03*
D21*
X156425500Y-79479500D03*
X158965500Y-79479500D03*
X161505500Y-79479500D03*
X164045500Y-79479500D03*
D20*
X154739500Y-66546000D03*
D21*
X157279500Y-66546000D03*
X159819500Y-66546000D03*
X162359500Y-66546000D03*
X164899500Y-66546000D03*
%TD*%
D25*
%TO.C,U6*%
X158200000Y-85400000D03*
D11*
X155700000Y-85400000D03*
X153200000Y-85400000D03*
%TD*%
D30*
%TO.C,M1*%
X142305000Y-69884100D03*
D31*
X142305000Y-72384100D03*
%TD*%
D30*
%TO.C,M3*%
X124200000Y-71000000D03*
D31*
X124200000Y-73500000D03*
%TD*%
D33*
%TO.C,J3*%
X177546000Y-104408000D03*
X177546000Y-89408000D03*
%TD*%
D34*
%TO.C,D1*%
X166900000Y-85400000D03*
D23*
X164400000Y-85400000D03*
%TD*%
D30*
%TO.C,M2*%
X155800000Y-71825000D03*
D31*
X155800000Y-74325000D03*
%TD*%
M02*
