M48
; DRILL file {KiCad 8.0.0-dirty} date 2024-04-14T21:31:18-0400
; FORMAT={-:-/ absolute / metric / decimal}
; #@! TF.CreationDate,2024-04-14T21:31:18-04:00
; #@! TF.GenerationSoftware,Kicad,Pcbnew,8.0.0-dirty
; #@! TF.FileFunction,Plated,1,4,PTH
FMAT,2
METRIC
; #@! TA.AperFunction,Plated,PTH,ViaDrill
T1C0.400
; #@! TA.AperFunction,Plated,PTH,ComponentDrill
T2C0.762
; #@! TA.AperFunction,Plated,PTH,ComponentDrill
T3C0.787
; #@! TA.AperFunction,Plated,PTH,ComponentDrill
T4C0.800
; #@! TA.AperFunction,Plated,PTH,ComponentDrill
T5C0.950
; #@! TA.AperFunction,Plated,PTH,ComponentDrill
T6C1.000
; #@! TA.AperFunction,Plated,PTH,ComponentDrill
T7C1.100
; #@! TA.AperFunction,Plated,PTH,ComponentDrill
T8C3.200
%
G90
G05
T1
X100.211Y-82.87
X109.832Y-83.554
X113.75Y-104.574
X115.704Y-89.484
X125.533Y-88.528
X128.93Y-118.434
X131.587Y-112.579
X133.28Y-94.67
X137.578Y-79.399
X137.896Y-91.364
X143.331Y-84.638
X144.812Y-89.782
X145.075Y-91.583
X147.373Y-90.581
X148.002Y-115.97
X149.218Y-111.111
X149.636Y-106.953
X151.317Y-79.191
X152.054Y-79.926
X164.643Y-94.67
T2
X132.47Y-123.96
X135.01Y-123.96
X137.55Y-123.96
X140.09Y-123.96
X142.63Y-123.96
X151.57Y-93.4
X151.57Y-95.94
X151.57Y-98.48
X151.57Y-101.02
X151.57Y-103.56
X170.03Y-93.4
X170.03Y-95.94
X170.03Y-98.48
X170.03Y-101.02
X170.03Y-103.56
X190.6Y-102.4
X190.6Y-104.94
X190.6Y-107.48
X190.6Y-110.02
X190.6Y-112.56
T3
X91.168Y-115.452
X91.2Y-105.8
X91.2Y-110.626
X91.2Y-120.278
X93.168Y-115.452
X93.2Y-105.8
X93.2Y-110.626
X93.2Y-120.278
X95.168Y-115.452
X95.2Y-105.8
X95.2Y-110.626
X95.2Y-120.278
T4
X183.8Y-81.12
X183.8Y-91.28
T5
X101.4Y-121.55
X101.75Y-67.4
X101.75Y-69.9
X101.75Y-72.4
X103.9Y-121.55
X106.4Y-121.55
X108.9Y-121.55
X153.2Y-85.4
X155.7Y-85.4
X158.2Y-85.4
X184.0Y-118.6
X186.5Y-118.6
X189.0Y-118.6
X189.4Y-83.0
X189.4Y-85.5
X189.4Y-88.0
X189.4Y-90.5
T6
X104.38Y-106.6
X104.38Y-109.14
X106.92Y-106.6
X106.92Y-109.14
X109.46Y-106.6
X109.46Y-109.14
X112.0Y-106.6
X112.0Y-109.14
X114.54Y-106.6
X114.54Y-109.14
X117.08Y-106.6
X117.08Y-109.14
X117.8Y-66.4
X117.8Y-68.94
X117.8Y-71.48
X117.8Y-74.02
X117.8Y-76.56
X124.2Y-71.0
X124.2Y-73.5
X130.733Y-67.254
X130.733Y-69.794
X130.733Y-72.334
X130.733Y-74.874
X130.733Y-77.414
X136.064Y-66.531
X136.064Y-69.071
X136.064Y-71.611
X136.064Y-74.151
X136.064Y-76.691
X142.305Y-69.884
X142.305Y-72.384
X148.998Y-67.385
X148.998Y-69.925
X148.998Y-72.465
X148.998Y-75.005
X148.998Y-77.545
X150.78Y-111.66
X150.78Y-114.2
X153.32Y-111.66
X153.32Y-114.2
X153.885Y-79.48
X154.739Y-66.546
X155.8Y-71.825
X155.8Y-74.325
X155.86Y-111.66
X155.86Y-114.2
X156.425Y-79.48
X157.279Y-66.546
X158.4Y-111.66
X158.4Y-114.2
X158.965Y-79.48
X159.82Y-66.546
X161.505Y-79.48
X162.359Y-66.546
X164.046Y-79.48
X164.4Y-85.4
X164.899Y-66.546
X166.9Y-85.4
X167.2Y-124.4
X169.74Y-124.4
X170.585Y-72.89
X170.585Y-75.39
X172.28Y-124.4
X174.82Y-124.4
X175.3Y-117.6
X176.35Y-96.383
X177.207Y-65.233
X177.207Y-67.773
X177.207Y-70.313
X177.207Y-72.853
X177.207Y-75.393
X177.36Y-124.4
X177.8Y-117.6
X178.85Y-96.383
X179.9Y-124.4
X190.141Y-66.087
X190.141Y-68.627
X190.141Y-71.167
X190.141Y-73.707
X190.141Y-76.247
T7
X89.56Y-86.2
X89.56Y-101.44
X92.1Y-86.2
X92.1Y-101.44
X94.64Y-86.2
X94.64Y-101.44
X97.18Y-86.2
X97.18Y-101.44
X99.72Y-86.2
X99.72Y-101.44
X102.26Y-86.2
X102.26Y-101.44
X104.8Y-86.2
X104.8Y-101.44
X107.34Y-86.2
X107.34Y-101.44
X109.88Y-86.2
X109.88Y-101.44
X112.42Y-86.2
X112.42Y-101.44
X114.96Y-86.2
X114.96Y-101.44
X117.5Y-86.2
X117.5Y-101.44
X120.04Y-86.2
X120.04Y-101.44
X122.58Y-86.2
X122.58Y-101.44
X125.12Y-86.2
X125.12Y-101.44
X127.66Y-86.2
X127.66Y-101.44
X130.2Y-86.2
X130.2Y-101.44
X132.74Y-86.2
X132.74Y-101.44
X135.28Y-86.2
X135.28Y-101.44
X137.82Y-86.2
X137.82Y-101.44
X140.36Y-86.2
X140.36Y-101.44
X142.9Y-86.2
X142.9Y-101.44
X145.44Y-86.2
X145.44Y-101.44
X147.98Y-86.2
X147.98Y-101.44
T8
X106.243Y-81.303
X111.23Y-66.732
X111.23Y-115.732
X122.374Y-121.807
X158.086Y-121.807
X169.23Y-66.732
X169.23Y-115.732
X174.216Y-81.303
T6
G00X95.173Y-71.415
M15
G01X91.373Y-71.415
M16
G05
G00X95.173Y-78.515
M15
G01X91.373Y-78.515
M16
G05
M30
